{
    "asset": {
        "generator": "FBX2glTF v0.9.7",
        "version": "2.0"
    },
    "scene": 0,
    "buffers": [
        {
            "byteLength": 69576,
            "uri": "buffer.bin"
        }
    ],
    "bufferViews": [
        {
            "buffer": 0,
            "byteLength": 2244,
            "byteOffset": 0,
            "target": 34963
        },
        {
            "buffer": 0,
            "byteLength": 12204,
            "byteOffset": 2244,
            "target": 34962
        },
        {
            "buffer": 0,
            "byteLength": 12204,
            "byteOffset": 14448,
            "target": 34962
        },
        {
            "buffer": 0,
            "byteLength": 8136,
            "byteOffset": 26652,
            "target": 34962
        },
        {
            "buffer": 0,
            "byteLength": 2244,
            "byteOffset": 34788,
            "target": 34963
        },
        {
            "buffer": 0,
            "byteLength": 12204,
            "byteOffset": 37032,
            "target": 34962
        },
        {
            "buffer": 0,
            "byteLength": 12204,
            "byteOffset": 49236,
            "target": 34962
        },
        {
            "buffer": 0,
            "byteLength": 8136,
            "byteOffset": 61440,
            "target": 34962
        }
    ],
    "scenes": [
        {
            "name": "Root Scene",
            "nodes": [
                0
            ]
        }
    ],
    "accessors": [
        {
            "componentType": 5123,
            "type": "SCALAR",
            "count": 1122,
            "bufferView": 0,
            "byteOffset": 0
        },
        {
            "componentType": 5126,
            "type": "VEC3",
            "count": 1017,
            "bufferView": 1,
            "byteOffset": 0,
            "min": [
                -0.0222370903939009,
                0.00578157417476177,
                -0.0565034076571465
            ],
            "max": [
                0.0523398593068123,
                0.0403141379356384,
                -0.00293321837671101
            ]
        },
        {
            "componentType": 5126,
            "type": "VEC3",
            "count": 1017,
            "bufferView": 2,
            "byteOffset": 0
        },
        {
            "componentType": 5126,
            "type": "VEC2",
            "count": 1017,
            "bufferView": 3,
            "byteOffset": 0
        },
        {
            "componentType": 5123,
            "type": "SCALAR",
            "count": 1122,
            "bufferView": 4,
            "byteOffset": 0
        },
        {
            "componentType": 5126,
            "type": "VEC3",
            "count": 1017,
            "bufferView": 5,
            "byteOffset": 0,
            "min": [
                -0.00920196529477835,
                0.0108360284939408,
                -0.0602852143347263
            ],
            "max": [
                0.0522989630699158,
                0.0278847496956587,
                0.0140436552464962
            ]
        },
        {
            "componentType": 5126,
            "type": "VEC3",
            "count": 1017,
            "bufferView": 6,
            "byteOffset": 0
        },
        {
            "componentType": 5126,
            "type": "VEC2",
            "count": 1017,
            "bufferView": 7,
            "byteOffset": 0
        }
    ],
    "images": [
        {
            "name": "Banana02_03.jpg",
            "uri": "Banana02_03.jpg"
        }
    ],
    "samplers": [
        {}
    ],
    "textures": [
        {
            "name": "texture0",
            "sampler": 0,
            "source": 0
        }
    ],
    "materials": [
        {
            "name": "blinn5",
            "alphaMode": "OPAQUE",
            "extras": {
                "fromFBX": {
                    "shadingModel": "Phong",
                    "isTruePBR": false
                }
            },
            "pbrMetallicRoughness": {
                "baseColorTexture": {
                    "index": 0,
                    "texCoord": 0
                },
                "baseColorFactor": [
                    1.0,
                    1.0,
                    1.0,
                    1.0
                ],
                "metallicFactor": 0.400000005960464,
                "roughnessFactor": 0.490532398223877
            }
        }
    ],
    "meshes": [
        {
            "name": "Banana",
            "primitives": [
                {
                    "material": 0,
                    "mode": 4,
                    "attributes": {
                        "NORMAL": 2,
                        "POSITION": 1,
                        "TEXCOORD_0": 3
                    },
                    "indices": 0
                }
            ]
        },
        {
            "name": "Banana001",
            "primitives": [
                {
                    "material": 0,
                    "mode": 4,
                    "attributes": {
                        "NORMAL": 6,
                        "POSITION": 5,
                        "TEXCOORD_0": 7
                    },
                    "indices": 4
                }
            ]
        }
    ],
    "nodes": [
        {
            "name": "RootNode",
            "translation": [
                0.0,
                0.0,
                0.0
            ],
            "rotation": [
                0.0,
                0.0,
                0.0,
                1.0
            ],
            "scale": [
                1.0,
                1.0,
                1.0
            ],
            "children": [
                1
            ]
        },
        {
            "name": "Element",
            "translation": [
                0.0,
                0.0,
                0.0
            ],
            "rotation": [
                0.0,
                0.0,
                0.0,
                1.0
            ],
            "scale": [
                1.0,
                1.0,
                1.0
            ],
            "children": [
                2,
                3
            ]
        },
        {
            "name": "Banana",
            "translation": [
                0.0,
                0.00202729529701173,
                0.0
            ],
            "rotation": [
                0.0,
                0.0,
                0.0,
                1.0
            ],
            "scale": [
                1.0,
                1.0,
                1.0
            ],
            "mesh": 0
        },
        {
            "name": "Banana001",
            "translation": [
                0.0,
                0.0,
                0.0
            ],
            "rotation": [
                0.0,
                0.0,
                0.0,
                1.0
            ],
            "scale": [
                1.0,
                1.0,
                1.0
            ],
            "mesh": 1
        }
    ]
}