{
    "asset" : {
        "generator" : "Khronos glTF Blender I/O v1.3.48",
        "version" : "2.0"
    },
    "scene" : 0,
    "scenes" : [
        {
            "name" : "Scene",
            "nodes" : [
                5,
                6,
                7
            ]
        }
    ],
    "nodes" : [
        {
            "name" : "joint4",
            "rotation" : [
                0.0011299634352326393,
                0.00042128856875933707,
                -0.7067307233810425,
                0.7074816226959229
            ],
            "scale" : [
                1.0608837604522705,
                1.06088387966156,
                1.060883641242981
            ],
            "translation" : [
                0.06088446453213692,
                11.06088638305664,
                0.20781612396240234
            ]
        },
        {
            "children" : [
                0
            ],
            "name" : "joint3",
            "rotation" : [
                -0.027181772515177727,
                -2.994794082861185e-14,
                4.690665512800153e-14,
                0.9996305108070374
            ],
            "translation" : [
                -9.183031939030695e-13,
                13.00000286102295,
                0.14693549275398254
            ]
        },
        {
            "children" : [
                1
            ],
            "name" : "joint2",
            "rotation" : [
                -0.02718176133930683,
                2.096745710389314e-08,
                5.700824812215899e-10,
                0.9996305108070374
            ],
            "scale" : [
                1,
                0.9999999403953552,
                1
            ],
            "translation" : [
                6.16383744045379e-09,
                13.00000286102295,
                0.14693213999271393
            ]
        },
        {
            "children" : [
                2
            ],
            "name" : "joint1",
            "rotation" : [
                0.9996305704116821,
                -4.1595793476290055e-08,
                -2.18805826790458e-08,
                0.02718176692724228
            ],
            "scale" : [
                1,
                0.9999999403953552,
                0.9999998807907104
            ],
            "translation" : [
                -4.547473508864641e-13,
                19,
                -31.14692497253418
            ]
        },
        {
            "mesh" : 0,
            "name" : "polySurface31",
            "skin" : 0
        },
        {
            "children" : [
                4,
                3
            ],
            "name" : "Armature",
            "rotation" : [
                0.7071068286895752,
                0,
                0,
                0.7071067094802856
            ]
        },
        {
            "name" : "Light",
            "rotation" : [
                0.16907575726509094,
                0.7558803558349609,
                -0.27217137813568115,
                0.570947527885437
            ],
            "translation" : [
                4.076245307922363,
                5.903861999511719,
                -1.0054539442062378
            ]
        },
        {
            "name" : "Camera",
            "rotation" : [
                0.483536034822464,
                0.33687159419059753,
                -0.20870360732078552,
                0.7804827094078064
            ],
            "translation" : [
                7.358891487121582,
                4.958309173583984,
                6.925790786743164
            ]
        }
    ],
    "animations" : [
        {
            "channels" : [
                {
                    "sampler" : 0,
                    "target" : {
                        "node" : 3,
                        "path" : "translation"
                    }
                },
                {
                    "sampler" : 1,
                    "target" : {
                        "node" : 3,
                        "path" : "rotation"
                    }
                },
                {
                    "sampler" : 2,
                    "target" : {
                        "node" : 3,
                        "path" : "scale"
                    }
                },
                {
                    "sampler" : 3,
                    "target" : {
                        "node" : 2,
                        "path" : "translation"
                    }
                },
                {
                    "sampler" : 4,
                    "target" : {
                        "node" : 2,
                        "path" : "rotation"
                    }
                },
                {
                    "sampler" : 5,
                    "target" : {
                        "node" : 2,
                        "path" : "scale"
                    }
                },
                {
                    "sampler" : 6,
                    "target" : {
                        "node" : 1,
                        "path" : "translation"
                    }
                },
                {
                    "sampler" : 7,
                    "target" : {
                        "node" : 1,
                        "path" : "rotation"
                    }
                },
                {
                    "sampler" : 8,
                    "target" : {
                        "node" : 1,
                        "path" : "scale"
                    }
                },
                {
                    "sampler" : 9,
                    "target" : {
                        "node" : 0,
                        "path" : "translation"
                    }
                },
                {
                    "sampler" : 10,
                    "target" : {
                        "node" : 0,
                        "path" : "rotation"
                    }
                },
                {
                    "sampler" : 11,
                    "target" : {
                        "node" : 0,
                        "path" : "scale"
                    }
                }
            ],
            "name" : "Armature|Take 001|BaseLayer.001",
            "samplers" : [
                {
                    "input" : 7,
                    "interpolation" : "LINEAR",
                    "output" : 8
                },
                {
                    "input" : 7,
                    "interpolation" : "LINEAR",
                    "output" : 9
                },
                {
                    "input" : 7,
                    "interpolation" : "LINEAR",
                    "output" : 10
                },
                {
                    "input" : 7,
                    "interpolation" : "LINEAR",
                    "output" : 11
                },
                {
                    "input" : 7,
                    "interpolation" : "LINEAR",
                    "output" : 12
                },
                {
                    "input" : 7,
                    "interpolation" : "LINEAR",
                    "output" : 13
                },
                {
                    "input" : 7,
                    "interpolation" : "LINEAR",
                    "output" : 14
                },
                {
                    "input" : 7,
                    "interpolation" : "LINEAR",
                    "output" : 15
                },
                {
                    "input" : 7,
                    "interpolation" : "LINEAR",
                    "output" : 16
                },
                {
                    "input" : 7,
                    "interpolation" : "LINEAR",
                    "output" : 17
                },
                {
                    "input" : 7,
                    "interpolation" : "LINEAR",
                    "output" : 18
                },
                {
                    "input" : 7,
                    "interpolation" : "LINEAR",
                    "output" : 19
                }
            ]
        }
    ],
    "materials" : [
        {
            "doubleSided" : true,
            "emissiveFactor" : [
                0,
                0,
                0
            ],
            "name" : "typeBlinn.001",
            "pbrMetallicRoughness" : {
                "baseColorFactor" : [
                    0.027320876717567444,
                    0.38642948865890503,
                    0.2831488251686096,
                    1
                ],
                "metallicFactor" : 0.5,
                "roughnessFactor" : 0.7487671971321106
            }
        }
    ],
    "meshes" : [
        {
            "name" : "Mesh.020",
            "primitives" : [
                {
                    "attributes" : {
                        "POSITION" : 0,
                        "NORMAL" : 1,
                        "TEXCOORD_0" : 2,
                        "JOINTS_0" : 3,
                        "WEIGHTS_0" : 4
                    },
                    "indices" : 5,
                    "material" : 0
                }
            ]
        }
    ],
    "skins" : [
        {
            "inverseBindMatrices" : 6,
            "joints" : [
                3,
                2,
                1,
                0
            ],
            "name" : "Armature"
        }
    ],
    "accessors" : [
        {
            "bufferView" : 0,
            "componentType" : 5126,
            "count" : 6184,
            "max" : [
                3.6382498741149902,
                39.63705062866211,
                24.345643997192383
            ],
            "min" : [
                -2.328188180923462,
                21.577606201171875,
                -20.373544692993164
            ],
            "type" : "VEC3"
        },
        {
            "bufferView" : 1,
            "componentType" : 5126,
            "count" : 6184,
            "type" : "VEC3"
        },
        {
            "bufferView" : 2,
            "componentType" : 5126,
            "count" : 6184,
            "type" : "VEC2"
        },
        {
            "bufferView" : 3,
            "componentType" : 5123,
            "count" : 6184,
            "type" : "VEC4"
        },
        {
            "bufferView" : 4,
            "componentType" : 5126,
            "count" : 6184,
            "type" : "VEC4"
        },
        {
            "bufferView" : 5,
            "componentType" : 5123,
            "count" : 28656,
            "type" : "SCALAR"
        },
        {
            "bufferView" : 6,
            "componentType" : 5126,
            "count" : 4,
            "type" : "MAT4"
        },
        {
            "bufferView" : 7,
            "componentType" : 5126,
            "count" : 81,
            "max" : [
                3.375
            ],
            "min" : [
                0.041666666666666664
            ],
            "type" : "SCALAR"
        },
        {
            "bufferView" : 8,
            "componentType" : 5126,
            "count" : 81,
            "type" : "VEC3"
        },
        {
            "bufferView" : 9,
            "componentType" : 5126,
            "count" : 81,
            "type" : "VEC4"
        },
        {
            "bufferView" : 10,
            "componentType" : 5126,
            "count" : 81,
            "type" : "VEC3"
        },
        {
            "bufferView" : 11,
            "componentType" : 5126,
            "count" : 81,
            "type" : "VEC3"
        },
        {
            "bufferView" : 12,
            "componentType" : 5126,
            "count" : 81,
            "type" : "VEC4"
        },
        {
            "bufferView" : 13,
            "componentType" : 5126,
            "count" : 81,
            "type" : "VEC3"
        },
        {
            "bufferView" : 14,
            "componentType" : 5126,
            "count" : 81,
            "type" : "VEC3"
        },
        {
            "bufferView" : 15,
            "componentType" : 5126,
            "count" : 81,
            "type" : "VEC4"
        },
        {
            "bufferView" : 16,
            "componentType" : 5126,
            "count" : 81,
            "type" : "VEC3"
        },
        {
            "bufferView" : 17,
            "componentType" : 5126,
            "count" : 81,
            "type" : "VEC3"
        },
        {
            "bufferView" : 18,
            "componentType" : 5126,
            "count" : 81,
            "type" : "VEC4"
        },
        {
            "bufferView" : 19,
            "componentType" : 5126,
            "count" : 81,
            "type" : "VEC3"
        }
    ],
    "bufferViews" : [
        {
            "buffer" : 0,
            "byteLength" : 74208,
            "byteOffset" : 0
        },
        {
            "buffer" : 0,
            "byteLength" : 74208,
            "byteOffset" : 74208
        },
        {
            "buffer" : 0,
            "byteLength" : 49472,
            "byteOffset" : 148416
        },
        {
            "buffer" : 0,
            "byteLength" : 49472,
            "byteOffset" : 197888
        },
        {
            "buffer" : 0,
            "byteLength" : 98944,
            "byteOffset" : 247360
        },
        {
            "buffer" : 0,
            "byteLength" : 57312,
            "byteOffset" : 346304
        },
        {
            "buffer" : 0,
            "byteLength" : 256,
            "byteOffset" : 403616
        },
        {
            "buffer" : 0,
            "byteLength" : 324,
            "byteOffset" : 403872
        },
        {
            "buffer" : 0,
            "byteLength" : 972,
            "byteOffset" : 404196
        },
        {
            "buffer" : 0,
            "byteLength" : 1296,
            "byteOffset" : 405168
        },
        {
            "buffer" : 0,
            "byteLength" : 972,
            "byteOffset" : 406464
        },
        {
            "buffer" : 0,
            "byteLength" : 972,
            "byteOffset" : 407436
        },
        {
            "buffer" : 0,
            "byteLength" : 1296,
            "byteOffset" : 408408
        },
        {
            "buffer" : 0,
            "byteLength" : 972,
            "byteOffset" : 409704
        },
        {
            "buffer" : 0,
            "byteLength" : 972,
            "byteOffset" : 410676
        },
        {
            "buffer" : 0,
            "byteLength" : 1296,
            "byteOffset" : 411648
        },
        {
            "buffer" : 0,
            "byteLength" : 972,
            "byteOffset" : 412944
        },
        {
            "buffer" : 0,
            "byteLength" : 972,
            "byteOffset" : 413916
        },
        {
            "buffer" : 0,
            "byteLength" : 1296,
            "byteOffset" : 414888
        },
        {
            "buffer" : 0,
            "byteLength" : 972,
            "byteOffset" : 416184
        }
    ],
    "buffers" : [
        {
            "byteLength" : 417156,
            "uri" : "data:application/octet-stream;base64,"
        }
    ]
}
