{
    "asset" : {
        "generator" : "Khronos glTF Blender I/O v1.6.16",
        "version" : "2.0"
    },
    "scene" : 0,
    "scenes" : [
        {
            "name" : "Scene",
            "nodes" : [
                0,
                1,
                2
            ]
        }
    ],
    "nodes" : [
        {
            "name" : "Light",
            "rotation" : [
                0.16907575726509094,
                0.7558803558349609,
                -0.27217137813568115,
                0.570947527885437
            ],
            "translation" : [
                4.076245307922363,
                5.903861999511719,
                -1.0054539442062378
            ]
        },
        {
            "name" : "Camera",
            "rotation" : [
                0.483536034822464,
                0.33687159419059753,
                -0.20870360732078552,
                0.7804827094078064
            ],
            "translation" : [
                7.358891487121582,
                4.958309173583984,
                6.925790786743164
            ]
        },
        {
            "mesh" : 0,
            "name" : "color",
            "rotation" : [
                0.7071068286895752,
                0,
                0,
                0.7071067094802856
            ],
            "scale" : [
                0.009999999776482582,
                0.02859620191156864,
                0.009999999776482582
            ],
            "translation" : [
                -0.31612110137939453,
                0.06785599887371063,
                -0.026307659223675728
            ]
        }
    ],
    "materials" : [
        {
            "doubleSided" : true,
            "name" : "typeBlinn2",
            "pbrMetallicRoughness" : {
                "baseColorFactor" : [
                    0.0921223983168602,
                    0.2937062978744507,
                    0.21511849761009216,
                    1
                ],
                "metallicFactor" : 0.5,
                "roughnessFactor" : 0.7487671971321106
            }
        },
        {
            "doubleSided" : true,
            "name" : "typeBlinn",
            "pbrMetallicRoughness" : {
                "baseColorFactor" : [
                    1,
                    0.1445000022649765,
                    0,
                    1
                ],
                "metallicFactor" : 0.5,
                "roughnessFactor" : 0.7487671971321106
            }
        },
        {
            "doubleSided" : true,
            "name" : "typeBlinn1",
            "pbrMetallicRoughness" : {
                "metallicFactor" : 0.5,
                "roughnessFactor" : 0.7487671971321106
            }
        }
    ],
    "meshes" : [
        {
            "name" : "Mesh",
            "primitives" : [
                {
                    "attributes" : {
                        "POSITION" : 0,
                        "NORMAL" : 1,
                        "TEXCOORD_0" : 2
                    },
                    "indices" : 3,
                    "material" : 0
                },
                {
                    "attributes" : {
                        "POSITION" : 4,
                        "NORMAL" : 5,
                        "TEXCOORD_0" : 6
                    },
                    "indices" : 7,
                    "material" : 1
                },
                {
                    "attributes" : {
                        "POSITION" : 8,
                        "NORMAL" : 9,
                        "TEXCOORD_0" : 10
                    },
                    "indices" : 11,
                    "material" : 2
                }
            ]
        }
    ],
    "accessors" : [
        {
            "bufferView" : 0,
            "componentType" : 5126,
            "count" : 1248,
            "max" : [
                62.76365661621094,
                1.901853322982788,
                21.52277374267578
            ],
            "min" : [
                16.680570602416992,
                -1.2601014680004157e-17,
                5.995887279510498
            ],
            "type" : "VEC3"
        },
        {
            "bufferView" : 1,
            "componentType" : 5126,
            "count" : 1248,
            "type" : "VEC3"
        },
        {
            "bufferView" : 2,
            "componentType" : 5126,
            "count" : 1248,
            "type" : "VEC2"
        },
        {
            "bufferView" : 3,
            "componentType" : 5123,
            "count" : 2988,
            "type" : "SCALAR"
        },
        {
            "bufferView" : 4,
            "componentType" : 5126,
            "count" : 672,
            "max" : [
                31.648679733276367,
                1.1504329442977905,
                2.640174150466919
            ],
            "min" : [
                0.46056607365608215,
                -1.088162630540347e-17,
                -4.730015754699707
            ],
            "type" : "VEC3"
        },
        {
            "bufferView" : 5,
            "componentType" : 5126,
            "count" : 672,
            "type" : "VEC3"
        },
        {
            "bufferView" : 6,
            "componentType" : 5126,
            "count" : 672,
            "type" : "VEC2"
        },
        {
            "bufferView" : 7,
            "componentType" : 5123,
            "count" : 1656,
            "type" : "SCALAR"
        },
        {
            "bufferView" : 8,
            "componentType" : 5126,
            "count" : 144,
            "max" : [
                46.27510070800781,
                1.3707892894744873,
                3.527228832244873
            ],
            "min" : [
                36.768775939941406,
                -0.061912648379802704,
                -5.766003131866455
            ],
            "type" : "VEC3"
        },
        {
            "bufferView" : 9,
            "componentType" : 5126,
            "count" : 144,
            "type" : "VEC3"
        },
        {
            "bufferView" : 10,
            "componentType" : 5126,
            "count" : 144,
            "type" : "VEC2"
        },
        {
            "bufferView" : 11,
            "componentType" : 5123,
            "count" : 348,
            "type" : "SCALAR"
        }
    ],
    "bufferViews" : [
        {
            "buffer" : 0,
            "byteLength" : 14976,
            "byteOffset" : 0
        },
        {
            "buffer" : 0,
            "byteLength" : 14976,
            "byteOffset" : 14976
        },
        {
            "buffer" : 0,
            "byteLength" : 9984,
            "byteOffset" : 29952
        },
        {
            "buffer" : 0,
            "byteLength" : 5976,
            "byteOffset" : 39936
        },
        {
            "buffer" : 0,
            "byteLength" : 8064,
            "byteOffset" : 45912
        },
        {
            "buffer" : 0,
            "byteLength" : 8064,
            "byteOffset" : 53976
        },
        {
            "buffer" : 0,
            "byteLength" : 5376,
            "byteOffset" : 62040
        },
        {
            "buffer" : 0,
            "byteLength" : 3312,
            "byteOffset" : 67416
        },
        {
            "buffer" : 0,
            "byteLength" : 1728,
            "byteOffset" : 70728
        },
        {
            "buffer" : 0,
            "byteLength" : 1728,
            "byteOffset" : 72456
        },
        {
            "buffer" : 0,
            "byteLength" : 1152,
            "byteOffset" : 74184
        },
        {
            "buffer" : 0,
            "byteLength" : 696,
            "byteOffset" : 75336
        }
    ],
    "buffers" : [
        {
            "byteLength" : 76032,
            "uri" : "data:application/octet-stream;base64,"
        }
    ]
}
