{
    "asset" : {
        "generator" : "Khronos glTF Blender I/O v1.6.16",
        "version" : "2.0"
    },
    "scene" : 0,
    "scenes" : [
        {
            "name" : "Scene",
            "nodes" : [
                0,
                1,
                2
            ]
        }
    ],
    "nodes" : [
        {
            "name" : "Light",
            "rotation" : [
                0.16907575726509094,
                0.7558803558349609,
                -0.27217137813568115,
                0.570947527885437
            ],
            "translation" : [
                4.076245307922363,
                5.903861999511719,
                -1.0054539442062378
            ]
        },
        {
            "name" : "Camera",
            "rotation" : [
                0.483536034822464,
                0.33687159419059753,
                -0.20870360732078552,
                0.7804827094078064
            ],
            "translation" : [
                7.358891487121582,
                4.958309173583984,
                6.925790786743164
            ]
        },
        {
            "mesh" : 0,
            "name" : "White",
            "rotation" : [
                0.7071068286895752,
                0,
                0,
                0.7071067094802856
            ],
            "scale" : [
                0.009999999776482582,
                0.02859620191156864,
                0.009999999776482582
            ],
            "translation" : [
                -0.3169277012348175,
                -0.31913116574287415,
                -0.024924349039793015
            ]
        }
    ],
    "materials" : [
        {
            "doubleSided" : true,
            "name" : "typeBlinn1.001",
            "pbrMetallicRoughness" : {
                "metallicFactor" : 0.5,
                "roughnessFactor" : 0.7487671971321106
            }
        }
    ],
    "meshes" : [
        {
            "name" : "Mesh.001",
            "primitives" : [
                {
                    "attributes" : {
                        "POSITION" : 0,
                        "NORMAL" : 1,
                        "TEXCOORD_0" : 2
                    },
                    "indices" : 3,
                    "material" : 0
                }
            ]
        }
    ],
    "accessors" : [
        {
            "bufferView" : 0,
            "componentType" : 5126,
            "count" : 2064,
            "max" : [
                62.92497253417969,
                1.6902663707733154,
                -17.175945281982422
            ],
            "min" : [
                0.46056607365608215,
                -0.061912648379802704,
                -44.4647216796875
            ],
            "type" : "VEC3"
        },
        {
            "bufferView" : 1,
            "componentType" : 5126,
            "count" : 2064,
            "type" : "VEC3"
        },
        {
            "bufferView" : 2,
            "componentType" : 5126,
            "count" : 2064,
            "type" : "VEC2"
        },
        {
            "bufferView" : 3,
            "componentType" : 5123,
            "count" : 4992,
            "type" : "SCALAR"
        }
    ],
    "bufferViews" : [
        {
            "buffer" : 0,
            "byteLength" : 24768,
            "byteOffset" : 0
        },
        {
            "buffer" : 0,
            "byteLength" : 24768,
            "byteOffset" : 24768
        },
        {
            "buffer" : 0,
            "byteLength" : 16512,
            "byteOffset" : 49536
        },
        {
            "buffer" : 0,
            "byteLength" : 9984,
            "byteOffset" : 66048
        }
    ],
    "buffers" : [
        {
            "byteLength" : 76032,
            "uri" : "data:application/octet-stream;base64,"
        }
    ]
}
