{
    "asset" : {
        "generator" : "Khronos glTF Blender I/O v1.3.48",
        "version" : "2.0"
    },
    "scene" : 0,
    "scenes" : [
        {
            "name" : "Scene",
            "nodes" : [
                0,
                1,
                7
            ]
        }
    ],
    "nodes" : [
        {
            "name" : "Light",
            "rotation" : [
                0.16907575726509094,
                0.7558803558349609,
                -0.27217137813568115,
                0.570947527885437
            ],
            "translation" : [
                4.076245307922363,
                5.903861999511719,
                -1.0054539442062378
            ]
        },
        {
            "name" : "Camera",
            "rotation" : [
                0.483536034822464,
                0.33687159419059753,
                -0.20870360732078552,
                0.7804827094078064
            ],
            "translation" : [
                7.358891487121582,
                4.958309173583984,
                6.925790786743164
            ]
        },
        {
            "name" : "joint4",
            "rotation" : [
                0.0004213447100482881,
                -0.7067307829856873,
                0.0011299627367407084,
                0.7074815630912781
            ],
            "scale" : [
                1.0608837604522705,
                1.060883641242981,
                1.0608837604522705
            ],
            "translation" : [
                11.060881614685059,
                0.2078113555908203,
                0.060884349048137665
            ]
        },
        {
            "children" : [
                2
            ],
            "name" : "joint3",
            "rotation" : [
                2.2212668771157617e-16,
                0,
                -0.02718176506459713,
                0.9996305108070374
            ],
            "translation" : [
                13,
                0.1469268798828125,
                5.682481400981487e-07
            ]
        },
        {
            "children" : [
                3
            ],
            "name" : "joint2",
            "rotation" : [
                -1.1106334385578809e-16,
                1.7770135016926094e-15,
                -0.027181757614016533,
                0.9996305108070374
            ],
            "translation" : [
                13,
                0.1469249725341797,
                5.68248026411311e-07
            ]
        },
        {
            "children" : [
                4
            ],
            "name" : "joint1",
            "rotation" : [
                -0.5134060978889465,
                0.48622438311576843,
                -0.5134061574935913,
                0.48622435331344604
            ],
            "translation" : [
                0,
                19,
                -31.14692497253418
            ]
        },
        {
            "mesh" : 0,
            "name" : "polySurface31",
            "skin" : 0
        },
        {
            "children" : [
                6,
                5
            ],
            "name" : "Armature",
            "rotation" : [
                0.7071068286895752,
                0,
                0,
                0.7071067094802856
            ]
        }
    ],
    "animations" : [
        {
            "channels" : [
                {
                    "sampler" : 0,
                    "target" : {
                        "node" : 5,
                        "path" : "translation"
                    }
                },
                {
                    "sampler" : 1,
                    "target" : {
                        "node" : 5,
                        "path" : "rotation"
                    }
                },
                {
                    "sampler" : 2,
                    "target" : {
                        "node" : 5,
                        "path" : "scale"
                    }
                },
                {
                    "sampler" : 3,
                    "target" : {
                        "node" : 4,
                        "path" : "translation"
                    }
                },
                {
                    "sampler" : 4,
                    "target" : {
                        "node" : 4,
                        "path" : "rotation"
                    }
                },
                {
                    "sampler" : 5,
                    "target" : {
                        "node" : 4,
                        "path" : "scale"
                    }
                },
                {
                    "sampler" : 6,
                    "target" : {
                        "node" : 3,
                        "path" : "translation"
                    }
                },
                {
                    "sampler" : 7,
                    "target" : {
                        "node" : 3,
                        "path" : "rotation"
                    }
                },
                {
                    "sampler" : 8,
                    "target" : {
                        "node" : 3,
                        "path" : "scale"
                    }
                },
                {
                    "sampler" : 9,
                    "target" : {
                        "node" : 2,
                        "path" : "translation"
                    }
                },
                {
                    "sampler" : 10,
                    "target" : {
                        "node" : 2,
                        "path" : "rotation"
                    }
                },
                {
                    "sampler" : 11,
                    "target" : {
                        "node" : 2,
                        "path" : "scale"
                    }
                }
            ],
            "name" : "Armature|Take 001|BaseLayer",
            "samplers" : [
                {
                    "input" : 7,
                    "interpolation" : "LINEAR",
                    "output" : 8
                },
                {
                    "input" : 7,
                    "interpolation" : "LINEAR",
                    "output" : 9
                },
                {
                    "input" : 7,
                    "interpolation" : "LINEAR",
                    "output" : 10
                },
                {
                    "input" : 7,
                    "interpolation" : "LINEAR",
                    "output" : 11
                },
                {
                    "input" : 7,
                    "interpolation" : "LINEAR",
                    "output" : 12
                },
                {
                    "input" : 7,
                    "interpolation" : "LINEAR",
                    "output" : 13
                },
                {
                    "input" : 7,
                    "interpolation" : "LINEAR",
                    "output" : 14
                },
                {
                    "input" : 7,
                    "interpolation" : "LINEAR",
                    "output" : 15
                },
                {
                    "input" : 7,
                    "interpolation" : "LINEAR",
                    "output" : 16
                },
                {
                    "input" : 7,
                    "interpolation" : "LINEAR",
                    "output" : 17
                },
                {
                    "input" : 7,
                    "interpolation" : "LINEAR",
                    "output" : 18
                },
                {
                    "input" : 7,
                    "interpolation" : "LINEAR",
                    "output" : 19
                }
            ]
        }
    ],
    "materials" : [
        {
            "doubleSided" : true,
            "emissiveFactor" : [
                0,
                0,
                0
            ],
            "name" : "typeBlinn",
            "pbrMetallicRoughness" : {
                "baseColorTexture" : {
                    "index" : 0,
                    "texCoord" : 0
                },
                "metallicFactor" : 0.5,
                "roughnessFactor" : 0.7487671971321106
            }
        }
    ],
    "meshes" : [
        {
            "name" : "Mesh",
            "primitives" : [
                {
                    "attributes" : {
                        "POSITION" : 0,
                        "NORMAL" : 1,
                        "TEXCOORD_0" : 2,
                        "JOINTS_0" : 3,
                        "WEIGHTS_0" : 4
                    },
                    "indices" : 5,
                    "material" : 0
                }
            ]
        }
    ],
    "textures" : [
        {
            "source" : 0
        }
    ],
    "images" : [
        {
            "bufferView" : 6,
            "mimeType" : "image/jpeg",
            "name" : "Cow_texture_edit"
        }
    ],
    "skins" : [
        {
            "inverseBindMatrices" : 6,
            "joints" : [
                5,
                4,
                3,
                2
            ],
            "name" : "Armature"
        }
    ],
    "accessors" : [
        {
            "bufferView" : 0,
            "componentType" : 5126,
            "count" : 4787,
            "max" : [
                3.6382498741149902,
                39.556182861328125,
                24.077333450317383
            ],
            "min" : [
                -2.3281872272491455,
                23.337997436523438,
                -20.336997985839844
            ],
            "type" : "VEC3"
        },
        {
            "bufferView" : 1,
            "componentType" : 5126,
            "count" : 4787,
            "type" : "VEC3"
        },
        {
            "bufferView" : 2,
            "componentType" : 5126,
            "count" : 4787,
            "type" : "VEC2"
        },
        {
            "bufferView" : 3,
            "componentType" : 5123,
            "count" : 4787,
            "type" : "VEC4"
        },
        {
            "bufferView" : 4,
            "componentType" : 5126,
            "count" : 4787,
            "type" : "VEC4"
        },
        {
            "bufferView" : 5,
            "componentType" : 5123,
            "count" : 28656,
            "type" : "SCALAR"
        },
        {
            "bufferView" : 7,
            "componentType" : 5126,
            "count" : 4,
            "type" : "MAT4"
        },
        {
            "bufferView" : 8,
            "componentType" : 5126,
            "count" : 81,
            "max" : [
                3.375
            ],
            "min" : [
                0.041666666666666664
            ],
            "type" : "SCALAR"
        },
        {
            "bufferView" : 9,
            "componentType" : 5126,
            "count" : 81,
            "type" : "VEC3"
        },
        {
            "bufferView" : 10,
            "componentType" : 5126,
            "count" : 81,
            "type" : "VEC4"
        },
        {
            "bufferView" : 11,
            "componentType" : 5126,
            "count" : 81,
            "type" : "VEC3"
        },
        {
            "bufferView" : 12,
            "componentType" : 5126,
            "count" : 81,
            "type" : "VEC3"
        },
        {
            "bufferView" : 13,
            "componentType" : 5126,
            "count" : 81,
            "type" : "VEC4"
        },
        {
            "bufferView" : 14,
            "componentType" : 5126,
            "count" : 81,
            "type" : "VEC3"
        },
        {
            "bufferView" : 15,
            "componentType" : 5126,
            "count" : 81,
            "type" : "VEC3"
        },
        {
            "bufferView" : 16,
            "componentType" : 5126,
            "count" : 81,
            "type" : "VEC4"
        },
        {
            "bufferView" : 17,
            "componentType" : 5126,
            "count" : 81,
            "type" : "VEC3"
        },
        {
            "bufferView" : 18,
            "componentType" : 5126,
            "count" : 81,
            "type" : "VEC3"
        },
        {
            "bufferView" : 19,
            "componentType" : 5126,
            "count" : 81,
            "type" : "VEC4"
        },
        {
            "bufferView" : 20,
            "componentType" : 5126,
            "count" : 81,
            "type" : "VEC3"
        }
    ],
    "bufferViews" : [
        {
            "buffer" : 0,
            "byteLength" : 57444,
            "byteOffset" : 0
        },
        {
            "buffer" : 0,
            "byteLength" : 57444,
            "byteOffset" : 57444
        },
        {
            "buffer" : 0,
            "byteLength" : 38296,
            "byteOffset" : 114888
        },
        {
            "buffer" : 0,
            "byteLength" : 38296,
            "byteOffset" : 153184
        },
        {
            "buffer" : 0,
            "byteLength" : 76592,
            "byteOffset" : 191480
        },
        {
            "buffer" : 0,
            "byteLength" : 57312,
            "byteOffset" : 268072
        },
        {
            "buffer" : 0,
            "byteLength" : 145654,
            "byteOffset" : 325384
        },
        {
            "buffer" : 0,
            "byteLength" : 256,
            "byteOffset" : 471040
        },
        {
            "buffer" : 0,
            "byteLength" : 324,
            "byteOffset" : 471296
        },
        {
            "buffer" : 0,
            "byteLength" : 972,
            "byteOffset" : 471620
        },
        {
            "buffer" : 0,
            "byteLength" : 1296,
            "byteOffset" : 472592
        },
        {
            "buffer" : 0,
            "byteLength" : 972,
            "byteOffset" : 473888
        },
        {
            "buffer" : 0,
            "byteLength" : 972,
            "byteOffset" : 474860
        },
        {
            "buffer" : 0,
            "byteLength" : 1296,
            "byteOffset" : 475832
        },
        {
            "buffer" : 0,
            "byteLength" : 972,
            "byteOffset" : 477128
        },
        {
            "buffer" : 0,
            "byteLength" : 972,
            "byteOffset" : 478100
        },
        {
            "buffer" : 0,
            "byteLength" : 1296,
            "byteOffset" : 479072
        },
        {
            "buffer" : 0,
            "byteLength" : 972,
            "byteOffset" : 480368
        },
        {
            "buffer" : 0,
            "byteLength" : 972,
            "byteOffset" : 481340
        },
        {
            "buffer" : 0,
            "byteLength" : 1296,
            "byteOffset" : 482312
        },
        {
            "buffer" : 0,
            "byteLength" : 972,
            "byteOffset" : 483608
        }
    ],
    "buffers" : [
        {
            "byteLength" : 484580,
            "uri" : "data:application/octet-stream;base64,"
        }
    ]
}
