{
    "asset" : {
        "generator" : "Khronos glTF Blender I/O v1.5.17",
        "version" : "2.0"
    },
    "extensionsUsed" : [
        "KHR_texture_transform"
    ],
    "extensionsRequired" : [
        "KHR_texture_transform"
    ],
    "scene" : 0,
    "scenes" : [
        {
            "name" : "Scene",
            "nodes" : [
                0,
                1,
                2
            ]
        }
    ],
    "nodes" : [
        {
            "name" : "Light",
            "rotation" : [
                0.16907575726509094,
                0.7558803558349609,
                -0.27217137813568115,
                0.570947527885437
            ],
            "translation" : [
                4.076245307922363,
                5.903861999511719,
                -1.0054539442062378
            ]
        },
        {
            "name" : "Camera",
            "rotation" : [
                0.483536034822464,
                0.33687159419059753,
                -0.20870360732078552,
                0.7804827094078064
            ],
            "translation" : [
                7.358891487121582,
                4.958309173583984,
                6.925790786743164
            ]
        },
        {
            "mesh" : 0,
            "name" : "polySurface2",
            "rotation" : [
                0.7071068286895752,
                0,
                0,
                0.7071067094802856
            ]
        }
    ],
    "materials" : [
        {
            "doubleSided" : true,
            "name" : "basket",
            "pbrMetallicRoughness" : {
                "baseColorTexture" : {
                    "index" : 0
                },
                "metallicFactor" : 0,
                "roughnessFactor" : 0.5527864098548889
            }
        },
        {
            "doubleSided" : true,
            "name" : "blinn2",
            "pbrMetallicRoughness" : {
                "baseColorFactor" : [
                    0,
                    0,
                    0,
                    1
                ],
                "metallicFactor" : 0.6223779916763306,
                "roughnessFactor" : 0.7487671971321106
            }
        },
        {
            "doubleSided" : true,
            "name" : "body1",
            "pbrMetallicRoughness" : {
                "baseColorTexture" : {
                    "index" : 1
                },
                "metallicFactor" : 0,
                "roughnessFactor" : 0.5527864098548889
            }
        },
        {
            "doubleSided" : true,
            "name" : "phongE2",
            "pbrMetallicRoughness" : {
                "baseColorTexture" : {
                    "index" : 2
                },
                "metallicFactor" : 0,
                "roughnessFactor" : 0.5527864098548889
            }
        },
        {
            "doubleSided" : true,
            "name" : "lambert4",
            "normalTexture" : {
                "index" : 3
            },
            "pbrMetallicRoughness" : {
                "baseColorTexture" : {
                    "extensions" : {
                        "KHR_texture_transform" : {
                            "offset" : [
                                -2.9129680456652096e-06,
                                1.0000058020174605
                            ],
                            "rotation" : -90
                        }
                    },
                    "index" : 4
                },
                "metallicFactor" : 0,
                "roughnessFactor" : 0.5527864098548889
            }
        }
    ],
    "meshes" : [
        {
            "name" : "Mesh.001",
            "primitives" : [
                {
                    "attributes" : {
                        "POSITION" : 0,
                        "NORMAL" : 1,
                        "TEXCOORD_0" : 2
                    },
                    "indices" : 3,
                    "material" : 0
                },
                {
                    "attributes" : {
                        "POSITION" : 4,
                        "NORMAL" : 5,
                        "TEXCOORD_0" : 6
                    },
                    "indices" : 7,
                    "material" : 1
                },
                {
                    "attributes" : {
                        "POSITION" : 8,
                        "NORMAL" : 9,
                        "TEXCOORD_0" : 10
                    },
                    "indices" : 11,
                    "material" : 2
                },
                {
                    "attributes" : {
                        "POSITION" : 12,
                        "NORMAL" : 13,
                        "TEXCOORD_0" : 14
                    },
                    "indices" : 15,
                    "material" : 3
                },
                {
                    "attributes" : {
                        "POSITION" : 16,
                        "NORMAL" : 17,
                        "TEXCOORD_0" : 18
                    },
                    "indices" : 19,
                    "material" : 4
                }
            ]
        }
    ],
    "textures" : [
        {
            "sampler" : 0,
            "source" : 0
        },
        {
            "sampler" : 0,
            "source" : 1
        },
        {
            "sampler" : 0,
            "source" : 2
        },
        {
            "sampler" : 0,
            "source" : 3
        },
        {
            "sampler" : 0,
            "source" : 3
        }
    ],
    "images" : [
        {
            "bufferView" : 4,
            "mimeType" : "image/jpeg",
            "name" : "basket"
        },
        {
            "bufferView" : 13,
            "mimeType" : "image/jpeg",
            "name" : "Cow_texture_edit"
        },
        {
            "bufferView" : 18,
            "mimeType" : "image/jpeg",
            "name" : "Apple_Texture_by_AGF81"
        },
        {
            "bufferView" : 23,
            "mimeType" : "image/jpeg",
            "name" : "56"
        }
    ],
    "accessors" : [
        {
            "bufferView" : 0,
            "componentType" : 5126,
            "count" : 525,
            "max" : [
                6.342893123626709,
                8.77989387512207,
                -0.21587562561035156
            ],
            "min" : [
                -5.026983737945557,
                -0.785010814666748,
                -8.500767707824707
            ],
            "type" : "VEC3"
        },
        {
            "bufferView" : 1,
            "componentType" : 5126,
            "count" : 525,
            "type" : "VEC3"
        },
        {
            "bufferView" : 2,
            "componentType" : 5126,
            "count" : 525,
            "type" : "VEC2"
        },
        {
            "bufferView" : 3,
            "componentType" : 5123,
            "count" : 1476,
            "type" : "SCALAR"
        },
        {
            "bufferView" : 5,
            "componentType" : 5126,
            "count" : 214,
            "max" : [
                5.109111309051514,
                5.367972373962402,
                -0.46262267231941223
            ],
            "min" : [
                -0.34528613090515137,
                -1.2766625881195068,
                -8.754343032836914
            ],
            "type" : "VEC3"
        },
        {
            "bufferView" : 6,
            "componentType" : 5126,
            "count" : 214,
            "type" : "VEC3"
        },
        {
            "bufferView" : 7,
            "componentType" : 5126,
            "count" : 214,
            "type" : "VEC2"
        },
        {
            "bufferView" : 8,
            "componentType" : 5123,
            "count" : 1092,
            "type" : "SCALAR"
        },
        {
            "bufferView" : 9,
            "componentType" : 5126,
            "count" : 106,
            "max" : [
                5.153846263885498,
                4.63046932220459,
                -1.4959272146224976
            ],
            "min" : [
                1.1073683500289917,
                -1.3271055221557617,
                -8.811816215515137
            ],
            "type" : "VEC3"
        },
        {
            "bufferView" : 10,
            "componentType" : 5126,
            "count" : 106,
            "type" : "VEC3"
        },
        {
            "bufferView" : 11,
            "componentType" : 5126,
            "count" : 106,
            "type" : "VEC2"
        },
        {
            "bufferView" : 12,
            "componentType" : 5123,
            "count" : 543,
            "type" : "SCALAR"
        },
        {
            "bufferView" : 14,
            "componentType" : 5126,
            "count" : 4040,
            "max" : [
                5.149236679077148,
                5.918987274169922,
                -2.6387624740600586
            ],
            "min" : [
                -1.4881045818328857,
                1.9707424640655518,
                -5.628236770629883
            ],
            "type" : "VEC3"
        },
        {
            "bufferView" : 15,
            "componentType" : 5126,
            "count" : 4040,
            "type" : "VEC3"
        },
        {
            "bufferView" : 16,
            "componentType" : 5126,
            "count" : 4040,
            "type" : "VEC2"
        },
        {
            "bufferView" : 17,
            "componentType" : 5123,
            "count" : 6060,
            "type" : "SCALAR"
        },
        {
            "bufferView" : 19,
            "componentType" : 5126,
            "count" : 2680,
            "max" : [
                4.42245626449585,
                5.217685222625732,
                -3.3293957710266113
            ],
            "min" : [
                -0.8256645202636719,
                1.9729442596435547,
                -5.578202247619629
            ],
            "type" : "VEC3"
        },
        {
            "bufferView" : 20,
            "componentType" : 5126,
            "count" : 2680,
            "type" : "VEC3"
        },
        {
            "bufferView" : 21,
            "componentType" : 5126,
            "count" : 2680,
            "type" : "VEC2"
        },
        {
            "bufferView" : 22,
            "componentType" : 5123,
            "count" : 3984,
            "type" : "SCALAR"
        }
    ],
    "bufferViews" : [
        {
            "buffer" : 0,
            "byteLength" : 6300,
            "byteOffset" : 0
        },
        {
            "buffer" : 0,
            "byteLength" : 6300,
            "byteOffset" : 6300
        },
        {
            "buffer" : 0,
            "byteLength" : 4200,
            "byteOffset" : 12600
        },
        {
            "buffer" : 0,
            "byteLength" : 2952,
            "byteOffset" : 16800
        },
        {
            "buffer" : 0,
            "byteLength" : 211389,
            "byteOffset" : 19752
        },
        {
            "buffer" : 0,
            "byteLength" : 2568,
            "byteOffset" : 231144
        },
        {
            "buffer" : 0,
            "byteLength" : 2568,
            "byteOffset" : 233712
        },
        {
            "buffer" : 0,
            "byteLength" : 1712,
            "byteOffset" : 236280
        },
        {
            "buffer" : 0,
            "byteLength" : 2184,
            "byteOffset" : 237992
        },
        {
            "buffer" : 0,
            "byteLength" : 1272,
            "byteOffset" : 240176
        },
        {
            "buffer" : 0,
            "byteLength" : 1272,
            "byteOffset" : 241448
        },
        {
            "buffer" : 0,
            "byteLength" : 848,
            "byteOffset" : 242720
        },
        {
            "buffer" : 0,
            "byteLength" : 1086,
            "byteOffset" : 243568
        },
        {
            "buffer" : 0,
            "byteLength" : 145654,
            "byteOffset" : 244656
        },
        {
            "buffer" : 0,
            "byteLength" : 48480,
            "byteOffset" : 390312
        },
        {
            "buffer" : 0,
            "byteLength" : 48480,
            "byteOffset" : 438792
        },
        {
            "buffer" : 0,
            "byteLength" : 32320,
            "byteOffset" : 487272
        },
        {
            "buffer" : 0,
            "byteLength" : 12120,
            "byteOffset" : 519592
        },
        {
            "buffer" : 0,
            "byteLength" : 126921,
            "byteOffset" : 531712
        },
        {
            "buffer" : 0,
            "byteLength" : 32160,
            "byteOffset" : 658636
        },
        {
            "buffer" : 0,
            "byteLength" : 32160,
            "byteOffset" : 690796
        },
        {
            "buffer" : 0,
            "byteLength" : 21440,
            "byteOffset" : 722956
        },
        {
            "buffer" : 0,
            "byteLength" : 7968,
            "byteOffset" : 744396
        },
        {
            "buffer" : 0,
            "byteLength" : 465911,
            "byteOffset" : 752364
        }
    ],
    "samplers" : [
        {
            "magFilter" : 9729,
            "minFilter" : 9987
        }
    ],
    "buffers" : [
        {
            "byteLength" : 1218276,
            "uri" : "data:application/octet-stream;base64,"
        }
    ]
}
