{
    "asset" : {
        "generator" : "Khronos glTF Blender I/O v1.5.17",
        "version" : "2.0"
    },
    "scene" : 0,
    "scenes" : [
        {
            "name" : "Scene",
            "nodes" : [
                0,
                1,
                2,
                3,
                4,
                5
            ]
        }
    ],
    "nodes" : [
        {
            "name" : "Light",
            "rotation" : [
                0.16907575726509094,
                0.7558803558349609,
                -0.27217137813568115,
                0.570947527885437
            ],
            "translation" : [
                4.076245307922363,
                5.903861999511719,
                -1.0054539442062378
            ]
        },
        {
            "name" : "Camera",
            "rotation" : [
                0.483536034822464,
                0.33687159419059753,
                -0.20870360732078552,
                0.7804827094078064
            ],
            "translation" : [
                7.358891487121582,
                4.958309173583984,
                6.925790786743164
            ]
        },
        {
            "mesh" : 0,
            "name" : "polySurface12",
            "rotation" : [
                0.2207125574350357,
                -0.67177814245224,
                0.6717782616615295,
                0.2207125425338745
            ],
            "scale" : [
                0.010878348723053932,
                0.010878348723053932,
                0.010878349654376507
            ],
            "translation" : [
                -0.00011447414726717398,
                -0.00011447906581452116,
                -0.00011448979057604447
            ]
        },
        {
            "mesh" : 1,
            "name" : "polySurface11",
            "rotation" : [
                0.2207125574350357,
                -0.67177814245224,
                0.6717782616615295,
                0.2207125425338745
            ],
            "scale" : [
                0.010878348723053932,
                0.010878348723053932,
                0.010878349654376507
            ],
            "translation" : [
                -0.00016651138139422983,
                -0.0001665115269133821,
                -0.0001665151066845283
            ]
        },
        {
            "mesh" : 2,
            "name" : "polySurface10",
            "rotation" : [
                0.2207125574350357,
                -0.67177814245224,
                0.6717782616615295,
                0.2207125425338745
            ],
            "scale" : [
                0.010878348723053932,
                0.010878348723053932,
                0.010878349654376507
            ],
            "translation" : [
                -0.0005619691219180822,
                -0.0005619621369987726,
                -0.000561969296541065
            ]
        },
        {
            "mesh" : 3,
            "name" : "polySurface9",
            "rotation" : [
                0.2207125574350357,
                -0.67177814245224,
                0.6717782616615295,
                0.2207125425338745
            ],
            "scale" : [
                0.010878348723053932,
                0.010878348723053932,
                0.010878349654376507
            ]
        }
    ],
    "animations" : [
        {
            "channels" : [
                {
                    "sampler" : 0,
                    "target" : {
                        "node" : 2,
                        "path" : "translation"
                    }
                },
                {
                    "sampler" : 1,
                    "target" : {
                        "node" : 2,
                        "path" : "rotation"
                    }
                },
                {
                    "sampler" : 2,
                    "target" : {
                        "node" : 2,
                        "path" : "scale"
                    }
                }
            ],
            "name" : "polySurface12|Take 001|BaseLayer",
            "samplers" : [
                {
                    "input" : 16,
                    "interpolation" : "LINEAR",
                    "output" : 17
                },
                {
                    "input" : 16,
                    "interpolation" : "LINEAR",
                    "output" : 18
                },
                {
                    "input" : 16,
                    "interpolation" : "LINEAR",
                    "output" : 19
                }
            ]
        },
        {
            "channels" : [
                {
                    "sampler" : 0,
                    "target" : {
                        "node" : 3,
                        "path" : "translation"
                    }
                },
                {
                    "sampler" : 1,
                    "target" : {
                        "node" : 3,
                        "path" : "rotation"
                    }
                },
                {
                    "sampler" : 2,
                    "target" : {
                        "node" : 3,
                        "path" : "scale"
                    }
                }
            ],
            "name" : "polySurface11|Take 001|BaseLayer",
            "samplers" : [
                {
                    "input" : 20,
                    "interpolation" : "LINEAR",
                    "output" : 21
                },
                {
                    "input" : 20,
                    "interpolation" : "LINEAR",
                    "output" : 22
                },
                {
                    "input" : 20,
                    "interpolation" : "LINEAR",
                    "output" : 23
                }
            ]
        },
        {
            "channels" : [
                {
                    "sampler" : 0,
                    "target" : {
                        "node" : 4,
                        "path" : "translation"
                    }
                },
                {
                    "sampler" : 1,
                    "target" : {
                        "node" : 4,
                        "path" : "rotation"
                    }
                },
                {
                    "sampler" : 2,
                    "target" : {
                        "node" : 4,
                        "path" : "scale"
                    }
                }
            ],
            "name" : "polySurface10|Take 001|BaseLayer",
            "samplers" : [
                {
                    "input" : 24,
                    "interpolation" : "LINEAR",
                    "output" : 25
                },
                {
                    "input" : 24,
                    "interpolation" : "LINEAR",
                    "output" : 26
                },
                {
                    "input" : 24,
                    "interpolation" : "LINEAR",
                    "output" : 27
                }
            ]
        },
        {
            "channels" : [
                {
                    "sampler" : 0,
                    "target" : {
                        "node" : 5,
                        "path" : "translation"
                    }
                },
                {
                    "sampler" : 1,
                    "target" : {
                        "node" : 5,
                        "path" : "rotation"
                    }
                },
                {
                    "sampler" : 2,
                    "target" : {
                        "node" : 5,
                        "path" : "scale"
                    }
                }
            ],
            "name" : "polySurface9|Take 001|BaseLayer",
            "samplers" : [
                {
                    "input" : 28,
                    "interpolation" : "LINEAR",
                    "output" : 29
                },
                {
                    "input" : 28,
                    "interpolation" : "LINEAR",
                    "output" : 30
                },
                {
                    "input" : 28,
                    "interpolation" : "LINEAR",
                    "output" : 31
                }
            ]
        }
    ],
    "materials" : [
        {
            "doubleSided" : true,
            "name" : "lambert2",
            "pbrMetallicRoughness" : {
                "baseColorTexture" : {
                    "index" : 0
                },
                "metallicFactor" : 0,
                "roughnessFactor" : 0.5527864098548889
            }
        }
    ],
    "meshes" : [
        {
            "name" : "Mesh",
            "primitives" : [
                {
                    "attributes" : {
                        "POSITION" : 0,
                        "NORMAL" : 1,
                        "TEXCOORD_0" : 2
                    },
                    "indices" : 3,
                    "material" : 0
                }
            ]
        },
        {
            "name" : "Mesh.001",
            "primitives" : [
                {
                    "attributes" : {
                        "POSITION" : 4,
                        "NORMAL" : 5,
                        "TEXCOORD_0" : 6
                    },
                    "indices" : 7,
                    "material" : 0
                }
            ]
        },
        {
            "name" : "Mesh.002",
            "primitives" : [
                {
                    "attributes" : {
                        "POSITION" : 8,
                        "NORMAL" : 9,
                        "TEXCOORD_0" : 10
                    },
                    "indices" : 11,
                    "material" : 0
                }
            ]
        },
        {
            "name" : "Mesh.003",
            "primitives" : [
                {
                    "attributes" : {
                        "POSITION" : 12,
                        "NORMAL" : 13,
                        "TEXCOORD_0" : 14
                    },
                    "indices" : 15,
                    "material" : 0
                }
            ]
        }
    ],
    "textures" : [
        {
            "sampler" : 0,
            "source" : 0
        }
    ],
    "images" : [
        {
            "bufferView" : 4,
            "mimeType" : "image/jpeg",
            "name" : "pattern_picnic_plate-01"
        }
    ],
    "accessors" : [
        {
            "bufferView" : 0,
            "componentType" : 5126,
            "count" : 96,
            "max" : [
                11.924081802368164,
                0.866216778755188,
                -19.220754623413086
            ],
            "min" : [
                7.946416854858398,
                -1.1747210025787354,
                -26.281147003173828
            ],
            "type" : "VEC3"
        },
        {
            "bufferView" : 1,
            "componentType" : 5126,
            "count" : 96,
            "type" : "VEC3"
        },
        {
            "bufferView" : 2,
            "componentType" : 5126,
            "count" : 96,
            "type" : "VEC2"
        },
        {
            "bufferView" : 3,
            "componentType" : 5123,
            "count" : 240,
            "type" : "SCALAR"
        },
        {
            "bufferView" : 5,
            "componentType" : 5126,
            "count" : 293,
            "max" : [
                6.952738285064697,
                0.866216778755188,
                -19.220754623413086
            ],
            "min" : [
                1.1660915613174438,
                -1.1747210025787354,
                -26.281147003173828
            ],
            "type" : "VEC3"
        },
        {
            "bufferView" : 6,
            "componentType" : 5126,
            "count" : 293,
            "type" : "VEC3"
        },
        {
            "bufferView" : 7,
            "componentType" : 5126,
            "count" : 293,
            "type" : "VEC2"
        },
        {
            "bufferView" : 8,
            "componentType" : 5123,
            "count" : 858,
            "type" : "SCALAR"
        },
        {
            "bufferView" : 9,
            "componentType" : 5126,
            "count" : 322,
            "max" : [
                0.7359665632247925,
                0.866216778755188,
                -19.102436065673828
            ],
            "min" : [
                -4.937019348144531,
                -1.1747210025787354,
                -26.281147003173828
            ],
            "type" : "VEC3"
        },
        {
            "bufferView" : 10,
            "componentType" : 5126,
            "count" : 322,
            "type" : "VEC3"
        },
        {
            "bufferView" : 11,
            "componentType" : 5126,
            "count" : 322,
            "type" : "VEC2"
        },
        {
            "bufferView" : 12,
            "componentType" : 5123,
            "count" : 990,
            "type" : "SCALAR"
        },
        {
            "bufferView" : 13,
            "componentType" : 5126,
            "count" : 296,
            "max" : [
                -5.537635803222656,
                0.8662182092666626,
                -19.220754623413086
            ],
            "min" : [
                -11.324283599853516,
                -1.1747210025787354,
                -26.281147003173828
            ],
            "type" : "VEC3"
        },
        {
            "bufferView" : 14,
            "componentType" : 5126,
            "count" : 296,
            "type" : "VEC3"
        },
        {
            "bufferView" : 15,
            "componentType" : 5126,
            "count" : 296,
            "type" : "VEC2"
        },
        {
            "bufferView" : 16,
            "componentType" : 5123,
            "count" : 858,
            "type" : "SCALAR"
        },
        {
            "bufferView" : 17,
            "componentType" : 5126,
            "count" : 32,
            "max" : [
                2.5416666666666665
            ],
            "min" : [
                1.25
            ],
            "type" : "SCALAR"
        },
        {
            "bufferView" : 18,
            "componentType" : 5126,
            "count" : 32,
            "type" : "VEC3"
        },
        {
            "bufferView" : 19,
            "componentType" : 5126,
            "count" : 32,
            "type" : "VEC4"
        },
        {
            "bufferView" : 20,
            "componentType" : 5126,
            "count" : 32,
            "type" : "VEC3"
        },
        {
            "bufferView" : 21,
            "componentType" : 5126,
            "count" : 33,
            "max" : [
                2.2083333333333335
            ],
            "min" : [
                0.875
            ],
            "type" : "SCALAR"
        },
        {
            "bufferView" : 22,
            "componentType" : 5126,
            "count" : 33,
            "type" : "VEC3"
        },
        {
            "bufferView" : 23,
            "componentType" : 5126,
            "count" : 33,
            "type" : "VEC4"
        },
        {
            "bufferView" : 24,
            "componentType" : 5126,
            "count" : 33,
            "type" : "VEC3"
        },
        {
            "bufferView" : 25,
            "componentType" : 5126,
            "count" : 33,
            "max" : [
                1.7916666666666667
            ],
            "min" : [
                0.4583333333333333
            ],
            "type" : "SCALAR"
        },
        {
            "bufferView" : 26,
            "componentType" : 5126,
            "count" : 33,
            "type" : "VEC3"
        },
        {
            "bufferView" : 27,
            "componentType" : 5126,
            "count" : 33,
            "type" : "VEC4"
        },
        {
            "bufferView" : 28,
            "componentType" : 5126,
            "count" : 33,
            "type" : "VEC3"
        },
        {
            "bufferView" : 29,
            "componentType" : 5126,
            "count" : 32,
            "max" : [
                1.375
            ],
            "min" : [
                0.08333333333333333
            ],
            "type" : "SCALAR"
        },
        {
            "bufferView" : 30,
            "componentType" : 5126,
            "count" : 32,
            "type" : "VEC3"
        },
        {
            "bufferView" : 31,
            "componentType" : 5126,
            "count" : 32,
            "type" : "VEC4"
        },
        {
            "bufferView" : 32,
            "componentType" : 5126,
            "count" : 32,
            "type" : "VEC3"
        }
    ],
    "bufferViews" : [
        {
            "buffer" : 0,
            "byteLength" : 1152,
            "byteOffset" : 0
        },
        {
            "buffer" : 0,
            "byteLength" : 1152,
            "byteOffset" : 1152
        },
        {
            "buffer" : 0,
            "byteLength" : 768,
            "byteOffset" : 2304
        },
        {
            "buffer" : 0,
            "byteLength" : 480,
            "byteOffset" : 3072
        },
        {
            "buffer" : 0,
            "byteLength" : 88959,
            "byteOffset" : 3552
        },
        {
            "buffer" : 0,
            "byteLength" : 3516,
            "byteOffset" : 92512
        },
        {
            "buffer" : 0,
            "byteLength" : 3516,
            "byteOffset" : 96028
        },
        {
            "buffer" : 0,
            "byteLength" : 2344,
            "byteOffset" : 99544
        },
        {
            "buffer" : 0,
            "byteLength" : 1716,
            "byteOffset" : 101888
        },
        {
            "buffer" : 0,
            "byteLength" : 3864,
            "byteOffset" : 103604
        },
        {
            "buffer" : 0,
            "byteLength" : 3864,
            "byteOffset" : 107468
        },
        {
            "buffer" : 0,
            "byteLength" : 2576,
            "byteOffset" : 111332
        },
        {
            "buffer" : 0,
            "byteLength" : 1980,
            "byteOffset" : 113908
        },
        {
            "buffer" : 0,
            "byteLength" : 3552,
            "byteOffset" : 115888
        },
        {
            "buffer" : 0,
            "byteLength" : 3552,
            "byteOffset" : 119440
        },
        {
            "buffer" : 0,
            "byteLength" : 2368,
            "byteOffset" : 122992
        },
        {
            "buffer" : 0,
            "byteLength" : 1716,
            "byteOffset" : 125360
        },
        {
            "buffer" : 0,
            "byteLength" : 128,
            "byteOffset" : 127076
        },
        {
            "buffer" : 0,
            "byteLength" : 384,
            "byteOffset" : 127204
        },
        {
            "buffer" : 0,
            "byteLength" : 512,
            "byteOffset" : 127588
        },
        {
            "buffer" : 0,
            "byteLength" : 384,
            "byteOffset" : 128100
        },
        {
            "buffer" : 0,
            "byteLength" : 132,
            "byteOffset" : 128484
        },
        {
            "buffer" : 0,
            "byteLength" : 396,
            "byteOffset" : 128616
        },
        {
            "buffer" : 0,
            "byteLength" : 528,
            "byteOffset" : 129012
        },
        {
            "buffer" : 0,
            "byteLength" : 396,
            "byteOffset" : 129540
        },
        {
            "buffer" : 0,
            "byteLength" : 132,
            "byteOffset" : 129936
        },
        {
            "buffer" : 0,
            "byteLength" : 396,
            "byteOffset" : 130068
        },
        {
            "buffer" : 0,
            "byteLength" : 528,
            "byteOffset" : 130464
        },
        {
            "buffer" : 0,
            "byteLength" : 396,
            "byteOffset" : 130992
        },
        {
            "buffer" : 0,
            "byteLength" : 128,
            "byteOffset" : 131388
        },
        {
            "buffer" : 0,
            "byteLength" : 384,
            "byteOffset" : 131516
        },
        {
            "buffer" : 0,
            "byteLength" : 512,
            "byteOffset" : 131900
        },
        {
            "buffer" : 0,
            "byteLength" : 384,
            "byteOffset" : 132412
        }
    ],
    "samplers" : [
        {
            "magFilter" : 9729,
            "minFilter" : 9987
        }
    ],
    "buffers" : [
        {
            "byteLength" : 132796,
            "uri" : "data:application/octet-stream;base64,"
        }
    ]
}
