{
    "asset" : {
        "generator" : "Khronos glTF Blender I/O v1.5.17",
        "version" : "2.0"
    },
    "scene" : 0,
    "scenes" : [
        {
            "name" : "Scene",
            "nodes" : [
                0,
                1,
                2,
                3,
                4,
                5
            ]
        }
    ],
    "nodes" : [
        {
            "name" : "Light",
            "rotation" : [
                0.16907575726509094,
                0.7558803558349609,
                -0.27217137813568115,
                0.570947527885437
            ],
            "translation" : [
                4.076245307922363,
                5.903861999511719,
                -1.0054539442062378
            ]
        },
        {
            "name" : "Camera",
            "rotation" : [
                0.483536034822464,
                0.33687159419059753,
                -0.20870360732078552,
                0.7804827094078064
            ],
            "translation" : [
                7.358891487121582,
                4.958309173583984,
                6.925790786743164
            ]
        },
        {
            "mesh" : 0,
            "name" : "polySurface1",
            "rotation" : [
                0.6936036944389343,
                0.1375281661748886,
                0.1375281661748886,
                0.6936035752296448
            ],
            "translation" : [
                -11.78023624420166,
                0,
                0
            ]
        },
        {
            "mesh" : 1,
            "name" : "polySurface2",
            "rotation" : [
                0.7032939791679382,
                0.07333165407180786,
                0.07333165407180786,
                0.703294038772583
            ],
            "translation" : [
                -13.00739574432373,
                0.7109991312026978,
                0
            ]
        },
        {
            "mesh" : 2,
            "name" : "polySurface3",
            "rotation" : [
                0.7014011144638062,
                -0.08964666724205017,
                -0.08964667469263077,
                0.7014010548591614
            ],
            "translation" : [
                -14.450450897216797,
                7.962894916534424,
                0
            ]
        },
        {
            "mesh" : 3,
            "name" : "polySurface4",
            "rotation" : [
                0.6752607226371765,
                -0.20981676876544952,
                -0.20981673896312714,
                0.6752606630325317
            ],
            "translation" : [
                -11.799917221069336,
                16.16128921508789,
                -0.029232213273644447
            ]
        }
    ],
    "materials" : [
        {
            "doubleSided" : true,
            "name" : "text",
            "pbrMetallicRoughness" : {
                "baseColorTexture" : {
                    "index" : 0
                },
                "metallicFactor" : 0,
                "roughnessFactor" : 0.5527864098548889
            }
        }
    ],
    "meshes" : [
        {
            "name" : "Mesh",
            "primitives" : [
                {
                    "attributes" : {
                        "POSITION" : 0,
                        "NORMAL" : 1,
                        "TEXCOORD_0" : 2
                    },
                    "indices" : 3,
                    "material" : 0
                }
            ]
        },
        {
            "name" : "Mesh.001",
            "primitives" : [
                {
                    "attributes" : {
                        "POSITION" : 4,
                        "NORMAL" : 5,
                        "TEXCOORD_0" : 6
                    },
                    "indices" : 7,
                    "material" : 0
                }
            ]
        },
        {
            "name" : "Mesh.002",
            "primitives" : [
                {
                    "attributes" : {
                        "POSITION" : 8,
                        "NORMAL" : 9,
                        "TEXCOORD_0" : 10
                    },
                    "indices" : 3,
                    "material" : 0
                }
            ]
        },
        {
            "name" : "Mesh.003",
            "primitives" : [
                {
                    "attributes" : {
                        "POSITION" : 11,
                        "NORMAL" : 12,
                        "TEXCOORD_0" : 13
                    },
                    "indices" : 14,
                    "material" : 0
                }
            ]
        }
    ],
    "textures" : [
        {
            "sampler" : 0,
            "source" : 0
        }
    ],
    "images" : [
        {
            "bufferView" : 4,
            "mimeType" : "image/jpeg",
            "name" : "pattern_picnic_plate-01"
        }
    ],
    "accessors" : [
        {
            "bufferView" : 0,
            "componentType" : 5126,
            "count" : 458,
            "max" : [
                7.629558086395264,
                2.5,
                0
            ],
            "min" : [
                -0.07961277663707733,
                0,
                -9.473919868469238
            ],
            "type" : "VEC3"
        },
        {
            "bufferView" : 1,
            "componentType" : 5126,
            "count" : 458,
            "type" : "VEC3"
        },
        {
            "bufferView" : 2,
            "componentType" : 5126,
            "count" : 458,
            "type" : "VEC2"
        },
        {
            "bufferView" : 3,
            "componentType" : 5123,
            "count" : 1758,
            "type" : "SCALAR"
        },
        {
            "bufferView" : 5,
            "componentType" : 5126,
            "count" : 600,
            "max" : [
                16.5076961517334,
                2.5,
                0.1857631504535675
            ],
            "min" : [
                8.320847511291504,
                0,
                -9.473919868469238
            ],
            "type" : "VEC3"
        },
        {
            "bufferView" : 6,
            "componentType" : 5126,
            "count" : 600,
            "type" : "VEC3"
        },
        {
            "bufferView" : 7,
            "componentType" : 5126,
            "count" : 600,
            "type" : "VEC2"
        },
        {
            "bufferView" : 8,
            "componentType" : 5123,
            "count" : 2400,
            "type" : "SCALAR"
        },
        {
            "bufferView" : 9,
            "componentType" : 5126,
            "count" : 458,
            "max" : [
                24.41855812072754,
                2.5,
                0
            ],
            "min" : [
                16.709386825561523,
                0,
                -9.473919868469238
            ],
            "type" : "VEC3"
        },
        {
            "bufferView" : 10,
            "componentType" : 5126,
            "count" : 458,
            "type" : "VEC3"
        },
        {
            "bufferView" : 11,
            "componentType" : 5126,
            "count" : 458,
            "type" : "VEC2"
        },
        {
            "bufferView" : 12,
            "componentType" : 5126,
            "count" : 72,
            "max" : [
                29.090486526489258,
                2.5,
                0
            ],
            "min" : [
                24.73832130432129,
                0,
                -9.288156509399414
            ],
            "type" : "VEC3"
        },
        {
            "bufferView" : 13,
            "componentType" : 5126,
            "count" : 72,
            "type" : "VEC3"
        },
        {
            "bufferView" : 14,
            "componentType" : 5126,
            "count" : 72,
            "type" : "VEC2"
        },
        {
            "bufferView" : 15,
            "componentType" : 5123,
            "count" : 168,
            "type" : "SCALAR"
        }
    ],
    "bufferViews" : [
        {
            "buffer" : 0,
            "byteLength" : 5496,
            "byteOffset" : 0
        },
        {
            "buffer" : 0,
            "byteLength" : 5496,
            "byteOffset" : 5496
        },
        {
            "buffer" : 0,
            "byteLength" : 3664,
            "byteOffset" : 10992
        },
        {
            "buffer" : 0,
            "byteLength" : 3516,
            "byteOffset" : 14656
        },
        {
            "buffer" : 0,
            "byteLength" : 88959,
            "byteOffset" : 18172
        },
        {
            "buffer" : 0,
            "byteLength" : 7200,
            "byteOffset" : 107132
        },
        {
            "buffer" : 0,
            "byteLength" : 7200,
            "byteOffset" : 114332
        },
        {
            "buffer" : 0,
            "byteLength" : 4800,
            "byteOffset" : 121532
        },
        {
            "buffer" : 0,
            "byteLength" : 4800,
            "byteOffset" : 126332
        },
        {
            "buffer" : 0,
            "byteLength" : 5496,
            "byteOffset" : 131132
        },
        {
            "buffer" : 0,
            "byteLength" : 5496,
            "byteOffset" : 136628
        },
        {
            "buffer" : 0,
            "byteLength" : 3664,
            "byteOffset" : 142124
        },
        {
            "buffer" : 0,
            "byteLength" : 864,
            "byteOffset" : 145788
        },
        {
            "buffer" : 0,
            "byteLength" : 864,
            "byteOffset" : 146652
        },
        {
            "buffer" : 0,
            "byteLength" : 576,
            "byteOffset" : 147516
        },
        {
            "buffer" : 0,
            "byteLength" : 336,
            "byteOffset" : 148092
        }
    ],
    "samplers" : [
        {
            "magFilter" : 9729,
            "minFilter" : 9987
        }
    ],
    "buffers" : [
        {
            "byteLength" : 148428,
            "uri" : "data:application/octet-stream;base64,"
        }
    ]
}
