{
    "asset": {
        "generator": "FBX2glTF v0.9.7",
        "version": "2.0"
    },
    "scene": 0,
    "buffers": [
        {
            "byteLength": 37960,
            "uri": "buffer.bin"
        }
    ],
    "bufferViews": [
        {
            "buffer": 0,
            "byteLength": 1164,
            "byteOffset": 0,
            "target": 34963
        },
        {
            "buffer": 0,
            "byteLength": 1920,
            "byteOffset": 1164,
            "target": 34962
        },
        {
            "buffer": 0,
            "byteLength": 1920,
            "byteOffset": 3084,
            "target": 34962
        },
        {
            "buffer": 0,
            "byteLength": 1280,
            "byteOffset": 5004,
            "target": 34962
        },
        {
            "buffer": 0,
            "byteLength": 1236,
            "byteOffset": 6284,
            "target": 34963
        },
        {
            "buffer": 0,
            "byteLength": 2400,
            "byteOffset": 7520,
            "target": 34962
        },
        {
            "buffer": 0,
            "byteLength": 2400,
            "byteOffset": 9920,
            "target": 34962
        },
        {
            "buffer": 0,
            "byteLength": 1600,
            "byteOffset": 12320,
            "target": 34962
        },
        {
            "buffer": 0,
            "byteLength": 1236,
            "byteOffset": 13920,
            "target": 34963
        },
        {
            "buffer": 0,
            "byteLength": 2400,
            "byteOffset": 15156,
            "target": 34962
        },
        {
            "buffer": 0,
            "byteLength": 2400,
            "byteOffset": 17556,
            "target": 34962
        },
        {
            "buffer": 0,
            "byteLength": 1600,
            "byteOffset": 19956,
            "target": 34962
        },
        {
            "buffer": 0,
            "byteLength": 492,
            "byteOffset": 21556,
            "target": 34963
        },
        {
            "buffer": 0,
            "byteLength": 2052,
            "byteOffset": 22048,
            "target": 34962
        },
        {
            "buffer": 0,
            "byteLength": 2052,
            "byteOffset": 24100,
            "target": 34962
        },
        {
            "buffer": 0,
            "byteLength": 1368,
            "byteOffset": 26152,
            "target": 34962
        },
        {
            "buffer": 0,
            "byteLength": 420,
            "byteOffset": 27520,
            "target": 34963
        },
        {
            "buffer": 0,
            "byteLength": 1800,
            "byteOffset": 27940,
            "target": 34962
        },
        {
            "buffer": 0,
            "byteLength": 1800,
            "byteOffset": 29740,
            "target": 34962
        },
        {
            "buffer": 0,
            "byteLength": 1200,
            "byteOffset": 31540,
            "target": 34962
        },
        {
            "buffer": 0,
            "byteLength": 420,
            "byteOffset": 32740,
            "target": 34963
        },
        {
            "buffer": 0,
            "byteLength": 1800,
            "byteOffset": 33160,
            "target": 34962
        },
        {
            "buffer": 0,
            "byteLength": 1800,
            "byteOffset": 34960,
            "target": 34962
        },
        {
            "buffer": 0,
            "byteLength": 1200,
            "byteOffset": 36760,
            "target": 34962
        }
    ],
    "scenes": [
        {
            "name": "Root Scene",
            "nodes": [
                0
            ]
        }
    ],
    "accessors": [
        {
            "componentType": 5123,
            "type": "SCALAR",
            "count": 582,
            "bufferView": 0,
            "byteOffset": 0
        },
        {
            "componentType": 5126,
            "type": "VEC3",
            "count": 160,
            "bufferView": 1,
            "byteOffset": 0,
            "min": [
                0.0755912065505981,
                0.0076073263771832,
                -0.0343098528683186
            ],
            "max": [
                0.10333539545536,
                0.0347396470606327,
                -0.00637166015803814
            ]
        },
        {
            "componentType": 5126,
            "type": "VEC3",
            "count": 160,
            "bufferView": 2,
            "byteOffset": 0
        },
        {
            "componentType": 5126,
            "type": "VEC2",
            "count": 160,
            "bufferView": 3,
            "byteOffset": 0
        },
        {
            "componentType": 5123,
            "type": "SCALAR",
            "count": 618,
            "bufferView": 4,
            "byteOffset": 0
        },
        {
            "componentType": 5126,
            "type": "VEC3",
            "count": 200,
            "bufferView": 5,
            "byteOffset": 0,
            "min": [
                0.0645482167601585,
                0.00737313274294138,
                -0.0125176543369889
            ],
            "max": [
                0.0926297232508659,
                0.0323187969624996,
                0.0152266761288047
            ]
        },
        {
            "componentType": 5126,
            "type": "VEC3",
            "count": 200,
            "bufferView": 6,
            "byteOffset": 0
        },
        {
            "componentType": 5126,
            "type": "VEC2",
            "count": 200,
            "bufferView": 7,
            "byteOffset": 0
        },
        {
            "componentType": 5123,
            "type": "SCALAR",
            "count": 618,
            "bufferView": 8,
            "byteOffset": 0
        },
        {
            "componentType": 5126,
            "type": "VEC3",
            "count": 200,
            "bufferView": 9,
            "byteOffset": 0,
            "min": [
                0.0436833612620831,
                0.0076073263771832,
                -0.0332160294055939
            ],
            "max": [
                0.0712123662233353,
                0.0347396470606327,
                -0.00587733974680305
            ]
        },
        {
            "componentType": 5126,
            "type": "VEC3",
            "count": 200,
            "bufferView": 10,
            "byteOffset": 0
        },
        {
            "componentType": 5126,
            "type": "VEC2",
            "count": 200,
            "bufferView": 11,
            "byteOffset": 0
        },
        {
            "componentType": 5123,
            "type": "SCALAR",
            "count": 246,
            "bufferView": 12,
            "byteOffset": 0
        },
        {
            "componentType": 5126,
            "type": "VEC3",
            "count": 171,
            "bufferView": 13,
            "byteOffset": 0,
            "min": [
                0.0760513842105865,
                0.0132751557976007,
                -0.0243297312408686
            ],
            "max": [
                0.0986798480153084,
                0.0319795273244381,
                -0.0165021494030952
            ]
        },
        {
            "componentType": 5126,
            "type": "VEC3",
            "count": 171,
            "bufferView": 14,
            "byteOffset": 0
        },
        {
            "componentType": 5126,
            "type": "VEC2",
            "count": 171,
            "bufferView": 15,
            "byteOffset": 0
        },
        {
            "componentType": 5123,
            "type": "SCALAR",
            "count": 210,
            "bufferView": 16,
            "byteOffset": 0
        },
        {
            "componentType": 5126,
            "type": "VEC3",
            "count": 150,
            "bufferView": 17,
            "byteOffset": 0,
            "min": [
                0.0759401991963387,
                0.00941799115389585,
                3.65757950930856e-05
            ],
            "max": [
                0.0811945721507072,
                0.0387952551245689,
                0.00261323200538754
            ]
        },
        {
            "componentType": 5126,
            "type": "VEC3",
            "count": 150,
            "bufferView": 18,
            "byteOffset": 0
        },
        {
            "componentType": 5126,
            "type": "VEC2",
            "count": 150,
            "bufferView": 19,
            "byteOffset": 0
        },
        {
            "componentType": 5123,
            "type": "SCALAR",
            "count": 210,
            "bufferView": 20,
            "byteOffset": 0
        },
        {
            "componentType": 5126,
            "type": "VEC3",
            "count": 150,
            "bufferView": 21,
            "byteOffset": 0,
            "min": [
                0.0441297516226768,
                0.0132751557976007,
                -0.023740641772747
            ],
            "max": [
                0.0666048005223274,
                0.0319520644843578,
                -0.0154210636392236
            ]
        },
        {
            "componentType": 5126,
            "type": "VEC3",
            "count": 150,
            "bufferView": 22,
            "byteOffset": 0
        },
        {
            "componentType": 5126,
            "type": "VEC2",
            "count": 150,
            "bufferView": 23,
            "byteOffset": 0
        }
    ],
    "images": [
        {
            "name": "Apple_Texture_by_AGF81.jpg",
            "uri": "Apple_Texture_by_AGF81.jpg"
        },
        {
            "name": "56.jpg",
            "uri": "56.jpg"
        }
    ],
    "samplers": [
        {}
    ],
    "textures": [
        {
            "name": "file9",
            "sampler": 0,
            "source": 0
        },
        {
            "name": "file11",
            "sampler": 0,
            "source": 1
        }
    ],
    "materials": [
        {
            "name": "phongE2",
            "alphaMode": "OPAQUE",
            "extras": {
                "fromFBX": {
                    "shadingModel": "Phong",
                    "isTruePBR": false
                }
            },
            "pbrMetallicRoughness": {
                "baseColorTexture": {
                    "index": 0,
                    "texCoord": 0
                },
                "baseColorFactor": [
                    0.800000011920929,
                    0.800000011920929,
                    0.800000011920929,
                    1.0
                ],
                "metallicFactor": 0.400000005960464,
                "roughnessFactor": 0.301511347293854
            }
        },
        {
            "name": "lambert4",
            "alphaMode": "OPAQUE",
            "extras": {
                "fromFBX": {
                    "shadingModel": "Lambert",
                    "isTruePBR": false
                }
            },
            "pbrMetallicRoughness": {
                "baseColorTexture": {
                    "index": 1,
                    "texCoord": 0
                },
                "baseColorFactor": [
                    0.800000011920929,
                    0.800000011920929,
                    0.800000011920929,
                    1.0
                ],
                "metallicFactor": 0.200000002980232,
                "roughnessFactor": 0.800000011920929
            }
        }
    ],
    "meshes": [
        {
            "name": "polySurface27",
            "primitives": [
                {
                    "material": 0,
                    "mode": 4,
                    "attributes": {
                        "NORMAL": 2,
                        "POSITION": 1,
                        "TEXCOORD_0": 3
                    },
                    "indices": 0
                },
                {
                    "material": 1,
                    "mode": 4,
                    "attributes": {
                        "NORMAL": 14,
                        "POSITION": 13,
                        "TEXCOORD_0": 15
                    },
                    "indices": 12
                }
            ]
        },
        {
            "name": "polySurface26",
            "primitives": [
                {
                    "material": 0,
                    "mode": 4,
                    "attributes": {
                        "NORMAL": 6,
                        "POSITION": 5,
                        "TEXCOORD_0": 7
                    },
                    "indices": 4
                },
                {
                    "material": 1,
                    "mode": 4,
                    "attributes": {
                        "NORMAL": 18,
                        "POSITION": 17,
                        "TEXCOORD_0": 19
                    },
                    "indices": 16
                }
            ]
        },
        {
            "name": "polySurface24",
            "primitives": [
                {
                    "material": 0,
                    "mode": 4,
                    "attributes": {
                        "NORMAL": 10,
                        "POSITION": 9,
                        "TEXCOORD_0": 11
                    },
                    "indices": 8
                },
                {
                    "material": 1,
                    "mode": 4,
                    "attributes": {
                        "NORMAL": 22,
                        "POSITION": 21,
                        "TEXCOORD_0": 23
                    },
                    "indices": 20
                }
            ]
        }
    ],
    "nodes": [
        {
            "name": "RootNode",
            "translation": [
                0.0,
                0.0,
                0.0
            ],
            "rotation": [
                0.0,
                0.0,
                0.0,
                1.0
            ],
            "scale": [
                1.0,
                1.0,
                1.0
            ],
            "children": [
                1
            ]
        },
        {
            "name": "Element",
            "translation": [
                0.0,
                0.0,
                0.0
            ],
            "rotation": [
                0.0,
                0.0,
                0.0,
                1.0
            ],
            "scale": [
                1.0,
                1.0,
                1.0
            ],
            "children": [
                2,
                3,
                4
            ]
        },
        {
            "name": "polySurface27",
            "translation": [
                0.0,
                0.0,
                0.0117372805252671
            ],
            "rotation": [
                0.0,
                0.0,
                0.0,
                1.0
            ],
            "scale": [
                1.0,
                1.0,
                1.0
            ],
            "mesh": 0
        },
        {
            "name": "polySurface26",
            "translation": [
                0.0,
                0.0,
                0.0117372805252671
            ],
            "rotation": [
                0.0,
                0.0,
                0.0,
                1.0
            ],
            "scale": [
                1.0,
                1.0,
                1.0
            ],
            "mesh": 1
        },
        {
            "name": "polySurface24",
            "translation": [
                0.00309113878756762,
                -0.00707826064899564,
                0.0117372805252671
            ],
            "rotation": [
                0.0,
                0.0,
                0.0639873072504997,
                0.997950732707977
            ],
            "scale": [
                1.0,
                1.0,
                1.0
            ],
            "mesh": 2
        }
    ]
}