{
    "asset" : {
        "generator" : "Khronos glTF Blender I/O v1.3.48",
        "version" : "2.0"
    },
    "extensionsUsed" : [
        "KHR_texture_transform"
    ],
    "extensionsRequired" : [
        "KHR_texture_transform"
    ],
    "scene" : 0,
    "scenes" : [
        {
            "name" : "Scene",
            "nodes" : [
                0,
                5,
                6
            ]
        }
    ],
    "nodes" : [
        {
            "name" : "Camera.001",
            "rotation" : [
                0.483536034822464,
                0.33687159419059753,
                -0.20870360732078552,
                0.7804827094078064
            ],
            "translation" : [
                7.358891487121582,
                4.958309173583984,
                6.925790786743164
            ]
        },
        {
            "mesh" : 0,
            "name" : "polySurface24"
        },
        {
            "mesh" : 1,
            "name" : "polySurface25"
        },
        {
            "mesh" : 2,
            "name" : "polySurface26"
        },
        {
            "mesh" : 3,
            "name" : "polySurface27"
        },
        {
            "children" : [
                1,
                2,
                3,
                4
            ],
            "name" : "Element",
            "rotation" : [
                0.7071068286895752,
                0,
                0,
                0.7071067094802856
            ]
        },
        {
            "name" : "Camera",
            "rotation" : [
                0.483536034822464,
                0.33687159419059753,
                -0.20870360732078552,
                0.7804827094078064
            ],
            "translation" : [
                7.358891487121582,
                4.958309173583984,
                6.925790786743164
            ]
        }
    ],
    "materials" : [
        {
            "doubleSided" : true,
            "emissiveFactor" : [
                0,
                0,
                0
            ],
            "name" : "phongE2",
            "pbrMetallicRoughness" : {
                "baseColorTexture" : {
                    "index" : 0,
                    "texCoord" : 0
                },
                "metallicFactor" : 0,
                "roughnessFactor" : 0.5527864098548889
            }
        },
        {
            "doubleSided" : true,
            "emissiveFactor" : [
                0,
                0,
                0
            ],
            "name" : "lambert4",
            "normalTexture" : {
                "index" : 1,
                "texCoord" : 0
            },
            "pbrMetallicRoughness" : {
                "baseColorTexture" : {
                    "extensions" : {
                        "KHR_texture_transform" : {
                            "offset" : [
                                -2.9129680456652096e-06,
                                1.0000058020174605
                            ],
                            "rotation" : -90
                        }
                    },
                    "index" : 2,
                    "texCoord" : 0
                },
                "metallicFactor" : 0,
                "roughnessFactor" : 0.5527864098548889
            }
        }
    ],
    "meshes" : [
        {
            "name" : "Mesh.018",
            "primitives" : [
                {
                    "attributes" : {
                        "POSITION" : 0,
                        "NORMAL" : 1,
                        "TEXCOORD_0" : 2
                    },
                    "indices" : 3,
                    "material" : 0
                },
                {
                    "attributes" : {
                        "POSITION" : 4,
                        "NORMAL" : 5,
                        "TEXCOORD_0" : 6
                    },
                    "indices" : 7,
                    "material" : 1
                }
            ]
        },
        {
            "name" : "Mesh.016",
            "primitives" : [
                {
                    "attributes" : {
                        "POSITION" : 8,
                        "NORMAL" : 9,
                        "TEXCOORD_0" : 10
                    },
                    "indices" : 3,
                    "material" : 0
                },
                {
                    "attributes" : {
                        "POSITION" : 11,
                        "NORMAL" : 12,
                        "TEXCOORD_0" : 13
                    },
                    "indices" : 7,
                    "material" : 1
                }
            ]
        },
        {
            "name" : "Mesh.017",
            "primitives" : [
                {
                    "attributes" : {
                        "POSITION" : 14,
                        "NORMAL" : 15,
                        "TEXCOORD_0" : 16
                    },
                    "indices" : 3,
                    "material" : 0
                },
                {
                    "attributes" : {
                        "POSITION" : 17,
                        "NORMAL" : 18,
                        "TEXCOORD_0" : 19
                    },
                    "indices" : 7,
                    "material" : 1
                }
            ]
        },
        {
            "name" : "Mesh.015",
            "primitives" : [
                {
                    "attributes" : {
                        "POSITION" : 20,
                        "NORMAL" : 21,
                        "TEXCOORD_0" : 22
                    },
                    "indices" : 3,
                    "material" : 0
                },
                {
                    "attributes" : {
                        "POSITION" : 23,
                        "NORMAL" : 24,
                        "TEXCOORD_0" : 25
                    },
                    "indices" : 7,
                    "material" : 1
                }
            ]
        }
    ],
    "textures" : [
        {
            "source" : 0
        },
        {
            "source" : 1
        },
        {
            "source" : 1
        }
    ],
    "images" : [
        {
            "bufferView" : 4,
            "mimeType" : "image/jpeg",
            "name" : "Apple_Texture_by_AGF81"
        },
        {
            "bufferView" : 9,
            "mimeType" : "image/jpeg",
            "name" : "56"
        }
    ],
    "accessors" : [
        {
            "bufferView" : 0,
            "componentType" : 5126,
            "count" : 227,
            "max" : [
                7.121236801147461,
                -0.5877339839935303,
                -0.7607326507568359
            ],
            "min" : [
                4.368336200714111,
                -3.3216030597686768,
                -3.4739649295806885
            ],
            "type" : "VEC3"
        },
        {
            "bufferView" : 1,
            "componentType" : 5126,
            "count" : 227,
            "type" : "VEC3"
        },
        {
            "bufferView" : 2,
            "componentType" : 5126,
            "count" : 227,
            "type" : "VEC2"
        },
        {
            "bufferView" : 3,
            "componentType" : 5123,
            "count" : 1020,
            "type" : "SCALAR"
        },
        {
            "bufferView" : 5,
            "componentType" : 5126,
            "count" : 350,
            "max" : [
                6.660480499267578,
                -1.5421063899993896,
                -1.3275156021118164
            ],
            "min" : [
                4.412975311279297,
                -2.3740642070770264,
                -3.1979527473449707
            ],
            "type" : "VEC3"
        },
        {
            "bufferView" : 6,
            "componentType" : 5126,
            "count" : 350,
            "type" : "VEC3"
        },
        {
            "bufferView" : 7,
            "componentType" : 5126,
            "count" : 350,
            "type" : "VEC2"
        },
        {
            "bufferView" : 8,
            "componentType" : 5123,
            "count" : 654,
            "type" : "SCALAR"
        },
        {
            "bufferView" : 10,
            "componentType" : 5126,
            "count" : 227,
            "max" : [
                12.593825340270996,
                9.30828857421875,
                -0.9144117832183838
            ],
            "min" : [
                9.775046348571777,
                6.6572771072387695,
                -3.6157941818237305
            ],
            "type" : "VEC3"
        },
        {
            "bufferView" : 11,
            "componentType" : 5126,
            "count" : 227,
            "type" : "VEC3"
        },
        {
            "bufferView" : 12,
            "componentType" : 5126,
            "count" : 227,
            "type" : "VEC2"
        },
        {
            "bufferView" : 13,
            "componentType" : 5126,
            "count" : 350,
            "max" : [
                11.370771408081055,
                9.694190979003906,
                -1.7450034618377686
            ],
            "min" : [
                11.039081573486328,
                6.9233808517456055,
                -2.918034553527832
            ],
            "type" : "VEC3"
        },
        {
            "bufferView" : 14,
            "componentType" : 5126,
            "count" : 350,
            "type" : "VEC3"
        },
        {
            "bufferView" : 15,
            "componentType" : 5126,
            "count" : 350,
            "type" : "VEC2"
        },
        {
            "bufferView" : 16,
            "componentType" : 5126,
            "count" : 227,
            "max" : [
                9.262972831726074,
                1.522667646408081,
                -0.731529712677002
            ],
            "min" : [
                6.454821586608887,
                -1.251765489578247,
                -3.231879711151123
            ],
            "type" : "VEC3"
        },
        {
            "bufferView" : 17,
            "componentType" : 5126,
            "count" : 227,
            "type" : "VEC3"
        },
        {
            "bufferView" : 18,
            "componentType" : 5126,
            "count" : 227,
            "type" : "VEC2"
        },
        {
            "bufferView" : 19,
            "componentType" : 5126,
            "count" : 350,
            "max" : [
                8.119457244873047,
                0.2613232135772705,
                -0.9341681003570557
            ],
            "min" : [
                7.593927383422852,
                -0.003175497055053711,
                -3.8795254230499268
            ],
            "type" : "VEC3"
        },
        {
            "bufferView" : 20,
            "componentType" : 5126,
            "count" : 350,
            "type" : "VEC3"
        },
        {
            "bufferView" : 21,
            "componentType" : 5126,
            "count" : 350,
            "type" : "VEC2"
        },
        {
            "bufferView" : 22,
            "componentType" : 5126,
            "count" : 227,
            "max" : [
                10.333539962768555,
                -0.6371660232543945,
                -0.7607326507568359
            ],
            "min" : [
                7.559121131896973,
                -3.43098521232605,
                -3.4739649295806885
            ],
            "type" : "VEC3"
        },
        {
            "bufferView" : 23,
            "componentType" : 5126,
            "count" : 227,
            "type" : "VEC3"
        },
        {
            "bufferView" : 24,
            "componentType" : 5126,
            "count" : 227,
            "type" : "VEC2"
        },
        {
            "bufferView" : 25,
            "componentType" : 5126,
            "count" : 350,
            "max" : [
                9.874935150146484,
                -1.6502149105072021,
                -1.3275156021118164
            ],
            "min" : [
                7.605138301849365,
                -2.4329731464385986,
                -3.1979527473449707
            ],
            "type" : "VEC3"
        },
        {
            "bufferView" : 26,
            "componentType" : 5126,
            "count" : 350,
            "type" : "VEC3"
        },
        {
            "bufferView" : 27,
            "componentType" : 5126,
            "count" : 350,
            "type" : "VEC2"
        }
    ],
    "bufferViews" : [
        {
            "buffer" : 0,
            "byteLength" : 2724,
            "byteOffset" : 0
        },
        {
            "buffer" : 0,
            "byteLength" : 2724,
            "byteOffset" : 2724
        },
        {
            "buffer" : 0,
            "byteLength" : 1816,
            "byteOffset" : 5448
        },
        {
            "buffer" : 0,
            "byteLength" : 2040,
            "byteOffset" : 7264
        },
        {
            "buffer" : 0,
            "byteLength" : 126921,
            "byteOffset" : 9304
        },
        {
            "buffer" : 0,
            "byteLength" : 4200,
            "byteOffset" : 136228
        },
        {
            "buffer" : 0,
            "byteLength" : 4200,
            "byteOffset" : 140428
        },
        {
            "buffer" : 0,
            "byteLength" : 2800,
            "byteOffset" : 144628
        },
        {
            "buffer" : 0,
            "byteLength" : 1308,
            "byteOffset" : 147428
        },
        {
            "buffer" : 0,
            "byteLength" : 465911,
            "byteOffset" : 148736
        },
        {
            "buffer" : 0,
            "byteLength" : 2724,
            "byteOffset" : 614648
        },
        {
            "buffer" : 0,
            "byteLength" : 2724,
            "byteOffset" : 617372
        },
        {
            "buffer" : 0,
            "byteLength" : 1816,
            "byteOffset" : 620096
        },
        {
            "buffer" : 0,
            "byteLength" : 4200,
            "byteOffset" : 621912
        },
        {
            "buffer" : 0,
            "byteLength" : 4200,
            "byteOffset" : 626112
        },
        {
            "buffer" : 0,
            "byteLength" : 2800,
            "byteOffset" : 630312
        },
        {
            "buffer" : 0,
            "byteLength" : 2724,
            "byteOffset" : 633112
        },
        {
            "buffer" : 0,
            "byteLength" : 2724,
            "byteOffset" : 635836
        },
        {
            "buffer" : 0,
            "byteLength" : 1816,
            "byteOffset" : 638560
        },
        {
            "buffer" : 0,
            "byteLength" : 4200,
            "byteOffset" : 640376
        },
        {
            "buffer" : 0,
            "byteLength" : 4200,
            "byteOffset" : 644576
        },
        {
            "buffer" : 0,
            "byteLength" : 2800,
            "byteOffset" : 648776
        },
        {
            "buffer" : 0,
            "byteLength" : 2724,
            "byteOffset" : 651576
        },
        {
            "buffer" : 0,
            "byteLength" : 2724,
            "byteOffset" : 654300
        },
        {
            "buffer" : 0,
            "byteLength" : 1816,
            "byteOffset" : 657024
        },
        {
            "buffer" : 0,
            "byteLength" : 4200,
            "byteOffset" : 658840
        },
        {
            "buffer" : 0,
            "byteLength" : 4200,
            "byteOffset" : 663040
        },
        {
            "buffer" : 0,
            "byteLength" : 2800,
            "byteOffset" : 667240
        }
    ],
    "buffers" : [
        {
            "byteLength" : 670040,
            "uri" : "data:application/octet-stream;base64,"
        }
    ]
}
