{
    "asset" : {
        "generator" : "Khronos glTF Blender I/O v1.3.48",
        "version" : "2.0"
    },
    "scene" : 0,
    "scenes" : [
        {
            "name" : "Scene",
            "nodes" : [
                0,
                3,
                4
            ]
        }
    ],
    "nodes" : [
        {
            "name" : "Camera.001",
            "rotation" : [
                0.483536034822464,
                0.33687159419059753,
                -0.20870360732078552,
                0.7804827094078064
            ],
            "translation" : [
                7.358891487121582,
                4.958309173583984,
                6.925790786743164
            ]
        },
        {
            "mesh" : 0,
            "name" : "Banana"
        },
        {
            "mesh" : 1,
            "name" : "Banana001"
        },
        {
            "children" : [
                1,
                2
            ],
            "name" : "Element",
            "rotation" : [
                0.7071068286895752,
                0,
                0,
                0.7071067094802856
            ]
        },
        {
            "name" : "Camera",
            "rotation" : [
                0.483536034822464,
                0.33687159419059753,
                -0.20870360732078552,
                0.7804827094078064
            ],
            "translation" : [
                7.358891487121582,
                4.958309173583984,
                6.925790786743164
            ]
        }
    ],
    "materials" : [
        {
            "doubleSided" : true,
            "emissiveFactor" : [
                0,
                0,
                0
            ],
            "name" : "BananaMtl",
            "pbrMetallicRoughness" : {
                "baseColorTexture" : {
                    "index" : 0,
                    "texCoord" : 0
                },
                "metallicFactor" : 0,
                "roughnessFactor" : 0.7171573042869568
            }
        },
        {
            "doubleSided" : true,
            "emissiveFactor" : [
                0,
                0,
                0
            ],
            "name" : "BananaMtl.001",
            "pbrMetallicRoughness" : {
                "baseColorTexture" : {
                    "index" : 1,
                    "texCoord" : 0
                },
                "metallicFactor" : 0,
                "roughnessFactor" : 0.7171573042869568
            }
        }
    ],
    "meshes" : [
        {
            "name" : "Mesh.007",
            "primitives" : [
                {
                    "attributes" : {
                        "POSITION" : 0,
                        "NORMAL" : 1,
                        "TEXCOORD_0" : 2
                    },
                    "indices" : 3,
                    "material" : 0
                }
            ]
        },
        {
            "name" : "Mesh.008",
            "primitives" : [
                {
                    "attributes" : {
                        "POSITION" : 4,
                        "NORMAL" : 5,
                        "TEXCOORD_0" : 6
                    },
                    "indices" : 3,
                    "material" : 1
                }
            ]
        }
    ],
    "textures" : [
        {
            "source" : 0
        },
        {
            "source" : 0
        }
    ],
    "images" : [
        {
            "bufferView" : 4,
            "mimeType" : "image/jpeg",
            "name" : "Banana02_03"
        }
    ],
    "accessors" : [
        {
            "bufferView" : 0,
            "componentType" : 5126,
            "count" : 3528,
            "max" : [
                5.251136779785156,
                -0.2656888961791992,
                -0.5740127563476562
            ],
            "min" : [
                -2.2237091064453125,
                -5.650341033935547,
                -4.0396728515625
            ],
            "type" : "VEC3"
        },
        {
            "bufferView" : 1,
            "componentType" : 5126,
            "count" : 3528,
            "type" : "VEC3"
        },
        {
            "bufferView" : 2,
            "componentType" : 5126,
            "count" : 3528,
            "type" : "VEC2"
        },
        {
            "bufferView" : 3,
            "componentType" : 5123,
            "count" : 5652,
            "type" : "SCALAR"
        },
        {
            "bufferView" : 5,
            "componentType" : 5126,
            "count" : 3528,
            "max" : [
                5.229896545410156,
                1.4043655395507812,
                -1.0836029052734375
            ],
            "min" : [
                -0.9287033081054688,
                -6.028521537780762,
                -2.7884750366210938
            ],
            "type" : "VEC3"
        },
        {
            "bufferView" : 6,
            "componentType" : 5126,
            "count" : 3528,
            "type" : "VEC3"
        },
        {
            "bufferView" : 7,
            "componentType" : 5126,
            "count" : 3528,
            "type" : "VEC2"
        }
    ],
    "bufferViews" : [
        {
            "buffer" : 0,
            "byteLength" : 42336,
            "byteOffset" : 0
        },
        {
            "buffer" : 0,
            "byteLength" : 42336,
            "byteOffset" : 42336
        },
        {
            "buffer" : 0,
            "byteLength" : 28224,
            "byteOffset" : 84672
        },
        {
            "buffer" : 0,
            "byteLength" : 11304,
            "byteOffset" : 112896
        },
        {
            "buffer" : 0,
            "byteLength" : 315388,
            "byteOffset" : 124200
        },
        {
            "buffer" : 0,
            "byteLength" : 42336,
            "byteOffset" : 439588
        },
        {
            "buffer" : 0,
            "byteLength" : 42336,
            "byteOffset" : 481924
        },
        {
            "buffer" : 0,
            "byteLength" : 28224,
            "byteOffset" : 524260
        }
    ],
    "buffers" : [
        {
            "byteLength" : 552484,
            "uri" : "data:application/octet-stream;base64,"
        }
    ]
}
