{
    "asset" : {
        "generator" : "Khronos glTF Blender I/O v1.3.48",
        "version" : "2.0"
    },
    "extensionsUsed" : [
        "KHR_texture_transform"
    ],
    "extensionsRequired" : [
        "KHR_texture_transform"
    ],
    "scene" : 0,
    "scenes" : [
        {
            "name" : "Scene",
            "nodes" : [
                0,
                8,
                9
            ]
        }
    ],
    "nodes" : [
        {
            "name" : "Camera.001",
            "rotation" : [
                0.483536034822464,
                0.33687159419059753,
                -0.20870360732078552,
                0.7804827094078064
            ],
            "translation" : [
                7.358891487121582,
                4.958309173583984,
                6.925790786743164
            ]
        },
        {
            "mesh" : 0,
            "name" : "polySurface14"
        },
        {
            "mesh" : 1,
            "name" : "polySurface15"
        },
        {
            "mesh" : 2,
            "name" : "polySurface16"
        },
        {
            "mesh" : 3,
            "name" : "polySurface19"
        },
        {
            "mesh" : 4,
            "name" : "polySurface22"
        },
        {
            "mesh" : 5,
            "name" : "polySurface23"
        },
        {
            "mesh" : 6,
            "name" : "polySurface6"
        },
        {
            "children" : [
                1,
                2,
                3,
                4,
                5,
                6,
                7
            ],
            "name" : "Element",
            "rotation" : [
                0.7071068286895752,
                0,
                0,
                0.7071067094802856
            ]
        },
        {
            "name" : "Camera",
            "rotation" : [
                0.483536034822464,
                0.33687159419059753,
                -0.20870360732078552,
                0.7804827094078064
            ],
            "translation" : [
                7.358891487121582,
                4.958309173583984,
                6.925790786743164
            ]
        }
    ],
    "materials" : [
        {
            "doubleSided" : true,
            "emissiveFactor" : [
                0,
                0,
                0
            ],
            "name" : "phongE2",
            "pbrMetallicRoughness" : {
                "baseColorTexture" : {
                    "index" : 0,
                    "texCoord" : 0
                },
                "metallicFactor" : 0,
                "roughnessFactor" : 0.5527864098548889
            }
        },
        {
            "doubleSided" : true,
            "emissiveFactor" : [
                0,
                0,
                0
            ],
            "name" : "lambert4",
            "normalTexture" : {
                "index" : 1,
                "texCoord" : 0
            },
            "pbrMetallicRoughness" : {
                "baseColorTexture" : {
                    "extensions" : {
                        "KHR_texture_transform" : {
                            "offset" : [
                                -2.9129680456652096e-06,
                                1.0000058020174605
                            ],
                            "rotation" : -90
                        }
                    },
                    "index" : 2,
                    "texCoord" : 0
                },
                "metallicFactor" : 0,
                "roughnessFactor" : 0.5527864098548889
            }
        },
        {
            "doubleSided" : true,
            "emissiveFactor" : [
                0,
                0,
                0
            ],
            "name" : "basket",
            "pbrMetallicRoughness" : {
                "baseColorTexture" : {
                    "index" : 3,
                    "texCoord" : 0
                },
                "metallicFactor" : 0,
                "roughnessFactor" : 0.5527864098548889
            }
        },
        {
            "doubleSided" : true,
            "emissiveFactor" : [
                0,
                0,
                0
            ],
            "name" : "blinn2",
            "pbrMetallicRoughness" : {
                "baseColorFactor" : [
                    0,
                    0,
                    0,
                    1
                ],
                "metallicFactor" : 0.6223779916763306,
                "roughnessFactor" : 0.7487671971321106
            }
        },
        {
            "doubleSided" : true,
            "emissiveFactor" : [
                0,
                0,
                0
            ],
            "name" : "body1",
            "pbrMetallicRoughness" : {
                "baseColorTexture" : {
                    "index" : 4,
                    "texCoord" : 0
                },
                "metallicFactor" : 0,
                "roughnessFactor" : 0.5527864098548889
            }
        }
    ],
    "meshes" : [
        {
            "name" : "Mesh.003",
            "primitives" : [
                {
                    "attributes" : {
                        "POSITION" : 0,
                        "NORMAL" : 1,
                        "TEXCOORD_0" : 2
                    },
                    "indices" : 3,
                    "material" : 0
                },
                {
                    "attributes" : {
                        "POSITION" : 4,
                        "NORMAL" : 5,
                        "TEXCOORD_0" : 6
                    },
                    "indices" : 7,
                    "material" : 1
                }
            ]
        },
        {
            "name" : "Mesh.006",
            "primitives" : [
                {
                    "attributes" : {
                        "POSITION" : 8,
                        "NORMAL" : 9,
                        "TEXCOORD_0" : 10
                    },
                    "indices" : 11,
                    "material" : 0
                },
                {
                    "attributes" : {
                        "POSITION" : 12,
                        "NORMAL" : 13,
                        "TEXCOORD_0" : 14
                    },
                    "indices" : 15,
                    "material" : 1
                }
            ]
        },
        {
            "name" : "Mesh.002",
            "primitives" : [
                {
                    "attributes" : {
                        "POSITION" : 16,
                        "NORMAL" : 17,
                        "TEXCOORD_0" : 18
                    },
                    "indices" : 19,
                    "material" : 2
                }
            ]
        },
        {
            "name" : "Mesh.004",
            "primitives" : [
                {
                    "attributes" : {
                        "POSITION" : 20,
                        "NORMAL" : 21,
                        "TEXCOORD_0" : 22
                    },
                    "indices" : 23,
                    "material" : 2
                }
            ]
        },
        {
            "name" : "Mesh.001",
            "primitives" : [
                {
                    "attributes" : {
                        "POSITION" : 24,
                        "NORMAL" : 25,
                        "TEXCOORD_0" : 26
                    },
                    "indices" : 27,
                    "material" : 2
                }
            ]
        },
        {
            "name" : "Mesh",
            "primitives" : [
                {
                    "attributes" : {
                        "POSITION" : 28,
                        "NORMAL" : 29,
                        "TEXCOORD_0" : 30
                    },
                    "indices" : 31,
                    "material" : 2
                }
            ]
        },
        {
            "name" : "Mesh.005",
            "primitives" : [
                {
                    "attributes" : {
                        "POSITION" : 32,
                        "NORMAL" : 33,
                        "TEXCOORD_0" : 34
                    },
                    "indices" : 35,
                    "material" : 3
                },
                {
                    "attributes" : {
                        "POSITION" : 36,
                        "NORMAL" : 37,
                        "TEXCOORD_0" : 38
                    },
                    "indices" : 39,
                    "material" : 4
                }
            ]
        }
    ],
    "textures" : [
        {
            "source" : 0
        },
        {
            "source" : 1
        },
        {
            "source" : 1
        },
        {
            "source" : 2
        },
        {
            "source" : 3
        }
    ],
    "images" : [
        {
            "bufferView" : 4,
            "mimeType" : "image/jpeg",
            "name" : "Apple_Texture_by_AGF81"
        },
        {
            "bufferView" : 9,
            "mimeType" : "image/jpeg",
            "name" : "56"
        },
        {
            "bufferView" : 22,
            "mimeType" : "image/jpeg",
            "name" : "basket"
        },
        {
            "bufferView" : 43,
            "mimeType" : "image/jpeg",
            "name" : "Cow_texture_edit"
        }
    ],
    "accessors" : [
        {
            "bufferView" : 0,
            "componentType" : 5126,
            "count" : 227,
            "max" : [
                -5.167557716369629,
                -1.4706478118896484,
                -5.6170654296875
            ],
            "min" : [
                -7.973237991333008,
                -4.142165184020996,
                -8.035481452941895
            ],
            "type" : "VEC3"
        },
        {
            "bufferView" : 1,
            "componentType" : 5126,
            "count" : 227,
            "type" : "VEC3"
        },
        {
            "bufferView" : 2,
            "componentType" : 5126,
            "count" : 227,
            "type" : "VEC2"
        },
        {
            "bufferView" : 3,
            "componentType" : 5123,
            "count" : 1020,
            "type" : "SCALAR"
        },
        {
            "bufferView" : 5,
            "componentType" : 5126,
            "count" : 356,
            "max" : [
                -6.446328163146973,
                -2.682285785675049,
                -5.754980087280273
            ],
            "min" : [
                -6.734005928039551,
                -2.9283337593078613,
                -8.39709186553955
            ],
            "type" : "VEC3"
        },
        {
            "bufferView" : 6,
            "componentType" : 5126,
            "count" : 356,
            "type" : "VEC3"
        },
        {
            "bufferView" : 7,
            "componentType" : 5126,
            "count" : 356,
            "type" : "VEC2"
        },
        {
            "bufferView" : 8,
            "componentType" : 5123,
            "count" : 654,
            "type" : "SCALAR"
        },
        {
            "bufferView" : 10,
            "componentType" : 5126,
            "count" : 227,
            "max" : [
                -6.526911735534668,
                -4.036553859710693,
                -4.575862407684326
            ],
            "min" : [
                -9.29574966430664,
                -6.8292341232299805,
                -7.3297882080078125
            ],
            "type" : "VEC3"
        },
        {
            "bufferView" : 11,
            "componentType" : 5126,
            "count" : 227,
            "type" : "VEC3"
        },
        {
            "bufferView" : 12,
            "componentType" : 5126,
            "count" : 227,
            "type" : "VEC2"
        },
        {
            "bufferView" : 13,
            "componentType" : 5123,
            "count" : 1020,
            "type" : "SCALAR"
        },
        {
            "bufferView" : 14,
            "componentType" : 5126,
            "count" : 350,
            "max" : [
                -6.603058815002441,
                -4.826308727264404,
                -5.523039817810059
            ],
            "min" : [
                -9.002832412719727,
                -6.045661449432373,
                -6.538471221923828
            ],
            "type" : "VEC3"
        },
        {
            "bufferView" : 15,
            "componentType" : 5126,
            "count" : 350,
            "type" : "VEC3"
        },
        {
            "bufferView" : 16,
            "componentType" : 5126,
            "count" : 350,
            "type" : "VEC2"
        },
        {
            "bufferView" : 17,
            "componentType" : 5123,
            "count" : 654,
            "type" : "SCALAR"
        },
        {
            "bufferView" : 18,
            "componentType" : 5126,
            "count" : 418,
            "max" : [
                -5.352731704711914,
                -1.3512321710586548,
                -7.544559955596924
            ],
            "min" : [
                -12.886445999145508,
                -9.041803359985352,
                -8.363360404968262
            ],
            "type" : "VEC3"
        },
        {
            "bufferView" : 19,
            "componentType" : 5126,
            "count" : 418,
            "type" : "VEC3"
        },
        {
            "bufferView" : 20,
            "componentType" : 5126,
            "count" : 418,
            "type" : "VEC2"
        },
        {
            "bufferView" : 21,
            "componentType" : 5123,
            "count" : 1284,
            "type" : "SCALAR"
        },
        {
            "bufferView" : 23,
            "componentType" : 5126,
            "count" : 1173,
            "max" : [
                0.2998666763305664,
                0.33211517333984375,
                -0.9569015502929688
            ],
            "min" : [
                -13.321885108947754,
                -9.484951972961426,
                -8.002829551696777
            ],
            "type" : "VEC3"
        },
        {
            "bufferView" : 24,
            "componentType" : 5126,
            "count" : 1173,
            "type" : "VEC3"
        },
        {
            "bufferView" : 25,
            "componentType" : 5126,
            "count" : 1173,
            "type" : "VEC2"
        },
        {
            "bufferView" : 26,
            "componentType" : 5123,
            "count" : 3048,
            "type" : "SCALAR"
        },
        {
            "bufferView" : 27,
            "componentType" : 5126,
            "count" : 418,
            "max" : [
                -0.4041624069213867,
                -0.031018733978271484,
                -7.6072797775268555
            ],
            "min" : [
                -7.626503944396973,
                -7.644289016723633,
                -12.419608116149902
            ],
            "type" : "VEC3"
        },
        {
            "bufferView" : 28,
            "componentType" : 5126,
            "count" : 418,
            "type" : "VEC3"
        },
        {
            "bufferView" : 29,
            "componentType" : 5126,
            "count" : 418,
            "type" : "VEC2"
        },
        {
            "bufferView" : 30,
            "componentType" : 5123,
            "count" : 1284,
            "type" : "SCALAR"
        },
        {
            "bufferView" : 31,
            "componentType" : 5126,
            "count" : 512,
            "max" : [
                -4.794600486755371,
                -0.5212435722351074,
                -6.8180623054504395
            ],
            "min" : [
                -8.200745582580566,
                -8.463994026184082,
                -12.558412551879883
            ],
            "type" : "VEC3"
        },
        {
            "bufferView" : 32,
            "componentType" : 5126,
            "count" : 512,
            "type" : "VEC3"
        },
        {
            "bufferView" : 33,
            "componentType" : 5126,
            "count" : 512,
            "type" : "VEC2"
        },
        {
            "bufferView" : 34,
            "componentType" : 5123,
            "count" : 1188,
            "type" : "SCALAR"
        },
        {
            "bufferView" : 35,
            "componentType" : 5126,
            "count" : 658,
            "max" : [
                0.6344094276428223,
                -2.828303813934326,
                -2.158903121948242
            ],
            "min" : [
                -7.795804023742676,
                -6.121192932128906,
                -11.0664644241333
            ],
            "type" : "VEC3"
        },
        {
            "bufferView" : 36,
            "componentType" : 5126,
            "count" : 658,
            "type" : "VEC3"
        },
        {
            "bufferView" : 37,
            "componentType" : 5126,
            "count" : 658,
            "type" : "VEC2"
        },
        {
            "bufferView" : 38,
            "componentType" : 5123,
            "count" : 3510,
            "type" : "SCALAR"
        },
        {
            "bufferView" : 39,
            "componentType" : 5126,
            "count" : 521,
            "max" : [
                2.364664316177368,
                -4.2740983963012695,
                -10.185615539550781
            ],
            "min" : [
                -0.3101217746734619,
                -5.604274749755859,
                -12.95355224609375
            ],
            "type" : "VEC3"
        },
        {
            "bufferView" : 40,
            "componentType" : 5126,
            "count" : 521,
            "type" : "VEC3"
        },
        {
            "bufferView" : 41,
            "componentType" : 5126,
            "count" : 521,
            "type" : "VEC2"
        },
        {
            "bufferView" : 42,
            "componentType" : 5123,
            "count" : 3042,
            "type" : "SCALAR"
        }
    ],
    "bufferViews" : [
        {
            "buffer" : 0,
            "byteLength" : 2724,
            "byteOffset" : 0
        },
        {
            "buffer" : 0,
            "byteLength" : 2724,
            "byteOffset" : 2724
        },
        {
            "buffer" : 0,
            "byteLength" : 1816,
            "byteOffset" : 5448
        },
        {
            "buffer" : 0,
            "byteLength" : 2040,
            "byteOffset" : 7264
        },
        {
            "buffer" : 0,
            "byteLength" : 126921,
            "byteOffset" : 9304
        },
        {
            "buffer" : 0,
            "byteLength" : 4272,
            "byteOffset" : 136228
        },
        {
            "buffer" : 0,
            "byteLength" : 4272,
            "byteOffset" : 140500
        },
        {
            "buffer" : 0,
            "byteLength" : 2848,
            "byteOffset" : 144772
        },
        {
            "buffer" : 0,
            "byteLength" : 1308,
            "byteOffset" : 147620
        },
        {
            "buffer" : 0,
            "byteLength" : 465911,
            "byteOffset" : 148928
        },
        {
            "buffer" : 0,
            "byteLength" : 2724,
            "byteOffset" : 614840
        },
        {
            "buffer" : 0,
            "byteLength" : 2724,
            "byteOffset" : 617564
        },
        {
            "buffer" : 0,
            "byteLength" : 1816,
            "byteOffset" : 620288
        },
        {
            "buffer" : 0,
            "byteLength" : 2040,
            "byteOffset" : 622104
        },
        {
            "buffer" : 0,
            "byteLength" : 4200,
            "byteOffset" : 624144
        },
        {
            "buffer" : 0,
            "byteLength" : 4200,
            "byteOffset" : 628344
        },
        {
            "buffer" : 0,
            "byteLength" : 2800,
            "byteOffset" : 632544
        },
        {
            "buffer" : 0,
            "byteLength" : 1308,
            "byteOffset" : 635344
        },
        {
            "buffer" : 0,
            "byteLength" : 5016,
            "byteOffset" : 636652
        },
        {
            "buffer" : 0,
            "byteLength" : 5016,
            "byteOffset" : 641668
        },
        {
            "buffer" : 0,
            "byteLength" : 3344,
            "byteOffset" : 646684
        },
        {
            "buffer" : 0,
            "byteLength" : 2568,
            "byteOffset" : 650028
        },
        {
            "buffer" : 0,
            "byteLength" : 211389,
            "byteOffset" : 652596
        },
        {
            "buffer" : 0,
            "byteLength" : 14076,
            "byteOffset" : 863988
        },
        {
            "buffer" : 0,
            "byteLength" : 14076,
            "byteOffset" : 878064
        },
        {
            "buffer" : 0,
            "byteLength" : 9384,
            "byteOffset" : 892140
        },
        {
            "buffer" : 0,
            "byteLength" : 6096,
            "byteOffset" : 901524
        },
        {
            "buffer" : 0,
            "byteLength" : 5016,
            "byteOffset" : 907620
        },
        {
            "buffer" : 0,
            "byteLength" : 5016,
            "byteOffset" : 912636
        },
        {
            "buffer" : 0,
            "byteLength" : 3344,
            "byteOffset" : 917652
        },
        {
            "buffer" : 0,
            "byteLength" : 2568,
            "byteOffset" : 920996
        },
        {
            "buffer" : 0,
            "byteLength" : 6144,
            "byteOffset" : 923564
        },
        {
            "buffer" : 0,
            "byteLength" : 6144,
            "byteOffset" : 929708
        },
        {
            "buffer" : 0,
            "byteLength" : 4096,
            "byteOffset" : 935852
        },
        {
            "buffer" : 0,
            "byteLength" : 2376,
            "byteOffset" : 939948
        },
        {
            "buffer" : 0,
            "byteLength" : 7896,
            "byteOffset" : 942324
        },
        {
            "buffer" : 0,
            "byteLength" : 7896,
            "byteOffset" : 950220
        },
        {
            "buffer" : 0,
            "byteLength" : 5264,
            "byteOffset" : 958116
        },
        {
            "buffer" : 0,
            "byteLength" : 7020,
            "byteOffset" : 963380
        },
        {
            "buffer" : 0,
            "byteLength" : 6252,
            "byteOffset" : 970400
        },
        {
            "buffer" : 0,
            "byteLength" : 6252,
            "byteOffset" : 976652
        },
        {
            "buffer" : 0,
            "byteLength" : 4168,
            "byteOffset" : 982904
        },
        {
            "buffer" : 0,
            "byteLength" : 6084,
            "byteOffset" : 987072
        },
        {
            "buffer" : 0,
            "byteLength" : 145654,
            "byteOffset" : 993156
        }
    ],
    "buffers" : [
        {
            "byteLength" : 1138812,
            "uri" : "data:application/octet-stream;base64,"
        }
    ]
}
