{
    "asset" : {
        "generator" : "Khronos glTF Blender I/O v1.3.48",
        "version" : "2.0"
    },
    "scene" : 0,
    "scenes" : [
        {
            "name" : "Scene",
            "nodes" : [
                0,
                4,
                5
            ]
        }
    ],
    "nodes" : [
        {
            "name" : "Camera.001",
            "rotation" : [
                0.483536034822464,
                0.33687159419059753,
                -0.20870360732078552,
                0.7804827094078064
            ],
            "translation" : [
                7.358891487121582,
                4.958309173583984,
                6.925790786743164
            ]
        },
        {
            "mesh" : 0,
            "name" : "Spice Cupcake"
        },
        {
            "mesh" : 1,
            "name" : "Spice Cupcake1"
        },
        {
            "mesh" : 2,
            "name" : "Spice Cupcake2"
        },
        {
            "children" : [
                1,
                2,
                3
            ],
            "name" : "Element",
            "rotation" : [
                0.7071068286895752,
                0,
                0,
                0.7071067094802856
            ]
        },
        {
            "name" : "Camera",
            "rotation" : [
                0.483536034822464,
                0.33687159419059753,
                -0.20870360732078552,
                0.7804827094078064
            ],
            "translation" : [
                7.358891487121582,
                4.958309173583984,
                6.925790786743164
            ]
        }
    ],
    "materials" : [
        {
            "doubleSided" : true,
            "emissiveFactor" : [
                0,
                0,
                0
            ],
            "name" : "Spice Cupcake PBR",
            "pbrMetallicRoughness" : {
                "baseColorTexture" : {
                    "index" : 0,
                    "texCoord" : 0
                },
                "metallicFactor" : 0,
                "roughnessFactor" : 1
            }
        }
    ],
    "meshes" : [
        {
            "name" : "Mesh.009",
            "primitives" : [
                {
                    "attributes" : {
                        "POSITION" : 0,
                        "NORMAL" : 1,
                        "TEXCOORD_0" : 2
                    },
                    "indices" : 3,
                    "material" : 0
                }
            ]
        },
        {
            "name" : "Mesh.010",
            "primitives" : [
                {
                    "attributes" : {
                        "POSITION" : 4,
                        "NORMAL" : 5,
                        "TEXCOORD_0" : 6
                    },
                    "indices" : 7,
                    "material" : 0
                }
            ]
        },
        {
            "name" : "Mesh.011",
            "primitives" : [
                {
                    "attributes" : {
                        "POSITION" : 8,
                        "NORMAL" : 9,
                        "TEXCOORD_0" : 10
                    },
                    "indices" : 11,
                    "material" : 0
                }
            ]
        }
    ],
    "textures" : [
        {
            "source" : 0
        }
    ],
    "images" : [
        {
            "bufferView" : 4,
            "mimeType" : "image/jpeg",
            "name" : "Spice_Cupcake_Albedo02"
        }
    ],
    "accessors" : [
        {
            "bufferView" : 0,
            "componentType" : 5126,
            "count" : 217,
            "max" : [
                -0.7792678475379944,
                -6.297396659851074,
                -0.7645392417907715
            ],
            "min" : [
                -3.621650457382202,
                -9.141206741333008,
                -3.412423610687256
            ],
            "type" : "VEC3"
        },
        {
            "bufferView" : 1,
            "componentType" : 5126,
            "count" : 217,
            "type" : "VEC3"
        },
        {
            "bufferView" : 2,
            "componentType" : 5126,
            "count" : 217,
            "type" : "VEC2"
        },
        {
            "bufferView" : 3,
            "componentType" : 5123,
            "count" : 384,
            "type" : "SCALAR"
        },
        {
            "bufferView" : 5,
            "componentType" : 5126,
            "count" : 223,
            "max" : [
                0.44644758105278015,
                -9.17452621459961,
                -0.510180652141571
            ],
            "min" : [
                -2.4993808269500732,
                -11.890015602111816,
                -3.198244333267212
            ],
            "type" : "VEC3"
        },
        {
            "bufferView" : 6,
            "componentType" : 5126,
            "count" : 223,
            "type" : "VEC3"
        },
        {
            "bufferView" : 7,
            "componentType" : 5126,
            "count" : 223,
            "type" : "VEC2"
        },
        {
            "bufferView" : 8,
            "componentType" : 5123,
            "count" : 384,
            "type" : "SCALAR"
        },
        {
            "bufferView" : 9,
            "componentType" : 5126,
            "count" : 220,
            "max" : [
                -2.5265533924102783,
                -9.10377311706543,
                -0.7343341112136841
            ],
            "min" : [
                -5.360175609588623,
                -11.918749809265137,
                -3.0731849670410156
            ],
            "type" : "VEC3"
        },
        {
            "bufferView" : 10,
            "componentType" : 5126,
            "count" : 220,
            "type" : "VEC3"
        },
        {
            "bufferView" : 11,
            "componentType" : 5126,
            "count" : 220,
            "type" : "VEC2"
        },
        {
            "bufferView" : 12,
            "componentType" : 5123,
            "count" : 384,
            "type" : "SCALAR"
        }
    ],
    "bufferViews" : [
        {
            "buffer" : 0,
            "byteLength" : 2604,
            "byteOffset" : 0
        },
        {
            "buffer" : 0,
            "byteLength" : 2604,
            "byteOffset" : 2604
        },
        {
            "buffer" : 0,
            "byteLength" : 1736,
            "byteOffset" : 5208
        },
        {
            "buffer" : 0,
            "byteLength" : 768,
            "byteOffset" : 6944
        },
        {
            "buffer" : 0,
            "byteLength" : 154412,
            "byteOffset" : 7712
        },
        {
            "buffer" : 0,
            "byteLength" : 2676,
            "byteOffset" : 162124
        },
        {
            "buffer" : 0,
            "byteLength" : 2676,
            "byteOffset" : 164800
        },
        {
            "buffer" : 0,
            "byteLength" : 1784,
            "byteOffset" : 167476
        },
        {
            "buffer" : 0,
            "byteLength" : 768,
            "byteOffset" : 169260
        },
        {
            "buffer" : 0,
            "byteLength" : 2640,
            "byteOffset" : 170028
        },
        {
            "buffer" : 0,
            "byteLength" : 2640,
            "byteOffset" : 172668
        },
        {
            "buffer" : 0,
            "byteLength" : 1760,
            "byteOffset" : 175308
        },
        {
            "buffer" : 0,
            "byteLength" : 768,
            "byteOffset" : 177068
        }
    ],
    "buffers" : [
        {
            "byteLength" : 177836,
            "uri" : "data:application/octet-stream;base64,"
        }
    ]
}
