{
    "asset" : {
        "generator" : "Khronos glTF Blender I/O v1.3.48",
        "version" : "2.0"
    },
    "scene" : 0,
    "scenes" : [
        {
            "name" : "Scene",
            "nodes" : [
                0,
                3,
                4
            ]
        }
    ],
    "nodes" : [
        {
            "name" : "Camera.001",
            "rotation" : [
                0.483536034822464,
                0.33687159419059753,
                -0.20870360732078552,
                0.7804827094078064
            ],
            "translation" : [
                7.358891487121582,
                4.958309173583984,
                6.925790786743164
            ]
        },
        {
            "mesh" : 0,
            "name" : "Sub Sandwich"
        },
        {
            "mesh" : 1,
            "name" : "Sub Sandwich1"
        },
        {
            "children" : [
                1,
                2
            ],
            "name" : "Element",
            "rotation" : [
                0.7071068286895752,
                0,
                0,
                0.7071067094802856
            ]
        },
        {
            "name" : "Camera",
            "rotation" : [
                0.483536034822464,
                0.33687159419059753,
                -0.20870360732078552,
                0.7804827094078064
            ],
            "translation" : [
                7.358891487121582,
                4.958309173583984,
                6.925790786743164
            ]
        }
    ],
    "materials" : [
        {
            "doubleSided" : true,
            "emissiveFactor" : [
                0,
                0,
                0
            ],
            "name" : "Sub Sandwich PBR",
            "pbrMetallicRoughness" : {
                "baseColorTexture" : {
                    "index" : 0,
                    "texCoord" : 0
                },
                "metallicFactor" : 0,
                "roughnessFactor" : 0.5
            }
        }
    ],
    "meshes" : [
        {
            "name" : "Mesh.013",
            "primitives" : [
                {
                    "attributes" : {
                        "POSITION" : 0,
                        "NORMAL" : 1,
                        "TEXCOORD_0" : 2
                    },
                    "indices" : 3,
                    "material" : 0
                }
            ]
        },
        {
            "name" : "Mesh.012",
            "primitives" : [
                {
                    "attributes" : {
                        "POSITION" : 4,
                        "NORMAL" : 5,
                        "TEXCOORD_0" : 6
                    },
                    "indices" : 7,
                    "material" : 0
                }
            ]
        }
    ],
    "textures" : [
        {
            "source" : 0
        }
    ],
    "images" : [
        {
            "bufferView" : 4,
            "mimeType" : "image/jpeg",
            "name" : "Sub_Sandwich_Albedo02"
        }
    ],
    "accessors" : [
        {
            "bufferView" : 0,
            "componentType" : 5126,
            "count" : 1267,
            "max" : [
                9.746545791625977,
                -5.721673965454102,
                -0.8150331974029541
            ],
            "min" : [
                3.1066856384277344,
                -10.144475936889648,
                -3.469799518585205
            ],
            "type" : "VEC3"
        },
        {
            "bufferView" : 1,
            "componentType" : 5126,
            "count" : 1267,
            "type" : "VEC3"
        },
        {
            "bufferView" : 2,
            "componentType" : 5126,
            "count" : 1267,
            "type" : "VEC2"
        },
        {
            "bufferView" : 3,
            "componentType" : 5123,
            "count" : 2226,
            "type" : "SCALAR"
        },
        {
            "bufferView" : 5,
            "componentType" : 5126,
            "count" : 1257,
            "max" : [
                13.042635917663574,
                -8.80795955657959,
                -0.6354485154151917
            ],
            "min" : [
                8.728717803955078,
                -15.203388214111328,
                -3.151404857635498
            ],
            "type" : "VEC3"
        },
        {
            "bufferView" : 6,
            "componentType" : 5126,
            "count" : 1257,
            "type" : "VEC3"
        },
        {
            "bufferView" : 7,
            "componentType" : 5126,
            "count" : 1257,
            "type" : "VEC2"
        },
        {
            "bufferView" : 8,
            "componentType" : 5123,
            "count" : 2226,
            "type" : "SCALAR"
        }
    ],
    "bufferViews" : [
        {
            "buffer" : 0,
            "byteLength" : 15204,
            "byteOffset" : 0
        },
        {
            "buffer" : 0,
            "byteLength" : 15204,
            "byteOffset" : 15204
        },
        {
            "buffer" : 0,
            "byteLength" : 10136,
            "byteOffset" : 30408
        },
        {
            "buffer" : 0,
            "byteLength" : 4452,
            "byteOffset" : 40544
        },
        {
            "buffer" : 0,
            "byteLength" : 286601,
            "byteOffset" : 44996
        },
        {
            "buffer" : 0,
            "byteLength" : 15084,
            "byteOffset" : 331600
        },
        {
            "buffer" : 0,
            "byteLength" : 15084,
            "byteOffset" : 346684
        },
        {
            "buffer" : 0,
            "byteLength" : 10056,
            "byteOffset" : 361768
        },
        {
            "buffer" : 0,
            "byteLength" : 4452,
            "byteOffset" : 371824
        }
    ],
    "buffers" : [
        {
            "byteLength" : 376276,
            "uri" : "data:application/octet-stream;base64,"
        }
    ]
}
